0
SECTION
2
HEADER
9
$INSUNITS
70
4
9
$ACADVER
1
AC1014
9
$HANDSEED
5
FFFF
0
ENDSEC
0
SECTION
2
TABLES
0
TABLE
2
VPORT
5
8
100
AcDbSymbolTable
0
ENDTAB
0
TABLE
2
LTYPE
5
5
100
AcDbSymbolTable
0
LTYPE
5
14
100
AcDbSymbolTableRecord
100
AcDbLinetypeTableRecord
2
BYBLOCK
70
0
0
LTYPE
5
15
100
AcDbSymbolTableRecord
100
AcDbLinetypeTableRecord
2
BYLAYER
70
0
0
LTYPE
5
16
100
AcDbSymbolTableRecord
100
AcDbLinetypeTableRecord
2
DASHED
70
0
3
Dashed __ __ __ __ __ __ __ __ __ __ __ __ __ _
72
65
73
2
40
0.75
49
0.5
74
0
49
-0.25
74
0
0
ENDTAB
0
TABLE
2
LAYER
5
2
100
AcDbSymbolTable
70
2
0
LAYER
5
50
100
AcDbSymbolTableRecord
100
AcDbLayerTableRecord
2
0
70
0
62
7
6
CONTINUOUS
0
ENDTAB
0
TABLE
2
STYLE
5
3
100
AcDbSymbolTable
70
1
0
STYLE
5
11
100
AcDbSymbolTableRecord
100
AcDbTextStyleTableRecord
2
STANDARD
70
0
0
ENDTAB
0
TABLE
2
VIEW
5
6
100
AcDbSymbolTable
70
0
0
ENDTAB
0
TABLE
2
UCS
5
7
100
AcDbSymbolTable
70
0
0
ENDTAB
0
TABLE
2
APPID
5
9
100
AcDbSymbolTable
70
2
0
APPID
5
12
100
AcDbSymbolTableRecord
100
AcDbRegAppTableRecord
2
ACAD
70
0
0
ENDTAB
0
TABLE
2
DIMSTYLE
5
A
100
AcDbSymbolTable
70
1
0
ENDTAB
0
TABLE
2
BLOCK_RECORD
5
1
100
AcDbSymbolTable
70
1
0
BLOCK_RECORD
5
1F
100
AcDbSymbolTableRecord
100
AcDbBlockTableRecord
2
*MODEL_SPACE
0
BLOCK_RECORD
5
1B
100
AcDbSymbolTableRecord
100
AcDbBlockTableRecord
2
*PAPER_SPACE
0
ENDTAB
0
ENDSEC
0
SECTION
2
BLOCKS
0
BLOCK
5
20
100
AcDbEntity
100
AcDbBlockBegin
2
*MODEL_SPACE
0
ENDBLK
5
21
100
AcDbEntity
100
AcDbBlockEnd
0
BLOCK
5
1C
100
AcDbEntity
100
AcDbBlockBegin
2
*PAPER_SPACE
0
ENDBLK
5
1D
100
AcDbEntity
100
AcDbBlockEnd
0
ENDSEC
0
SECTION
2
ENTITIES
0
LINE
5
100
100
AcDbEntity
8
0
100
AcDbLine
10
-265.54344880862595
20
-51.365370164184213
30
0
11
-231.76144880862594
21
-51.365370164184213
31
0
0
LINE
5
101
100
AcDbEntity
8
0
100
AcDbLine
10
-231.76144880862594
20
-51.365370164184213
30
0
11
-199.75744880862592
21
-57.207370164184219
31
0
0
LINE
5
102
100
AcDbEntity
8
0
100
AcDbLine
10
-199.75744880862592
20
-57.207370164184219
30
0
11
-188.58144880862594
21
-57.207370164184219
31
0
0
LINE
5
103
100
AcDbEntity
8
0
100
AcDbLine
10
-134.22544880862597
20
-49.841370164184212
30
0
11
-134.22544880862597
21
55.822629835815775
31
0
0
LINE
5
104
100
AcDbEntity
8
0
100
AcDbLine
10
-134.22544880862597
20
55.822629835815775
30
0
11
-134.22544880862597
21
57.346629835815776
31
0
0
LINE
5
105
100
AcDbEntity
8
0
100
AcDbLine
10
-134.22544880862597
20
57.346629835815776
30
0
11
-265.28944880862593
21
57.346629835815776
31
0
0
LINE
5
106
100
AcDbEntity
8
0
100
AcDbLine
10
-265.28944880862593
20
57.346629835815776
30
0
11
-265.54344880862595
21
57.346629835815776
31
0
0
LINE
5
107
100
AcDbEntity
8
0
100
AcDbLine
10
-265.54344880862595
20
57.346629835815776
30
0
11
-265.54344880862595
21
51.250629835815801
31
0
0
LINE
5
108
100
AcDbEntity
8
0
100
AcDbLine
10
-265.54344880862595
20
51.250629835815801
30
0
11
-265.54344880862595
21
-51.365370164184213
31
0
0
CIRCLE
5
109
100
AcDbEntity
8
0
100
AcDbCircle
10
-138.87744880862593
20
49.7966298358158
30
0
40
0.80000000000000016
210
0
220
-2.4651903288156619e-32
230
1
0
CIRCLE
5
110
100
AcDbEntity
8
0
100
AcDbCircle
10
-138.37744880862596
20
44.646629835815794
30
0
40
0.94999999999999996
210
0
220
-0
230
1
0
CIRCLE
5
111
100
AcDbEntity
8
0
100
AcDbCircle
10
-143.87744880862593
20
44.646629835815794
30
0
40
2.5249999999999999
210
0
220
-0
230
1
0
CIRCLE
5
112
100
AcDbEntity
8
0
100
AcDbCircle
10
-149.37744880862593
20
44.646629835815794
30
0
40
0.94999999999999996
210
0
220
-0
230
1
0
CIRCLE
5
113
100
AcDbEntity
8
0
100
AcDbCircle
10
-148.87744880862593
20
40.846629835815769
30
0
40
1.5249999999999999
210
0
220
-0
230
1
0
CIRCLE
5
114
100
AcDbEntity
8
0
100
AcDbCircle
10
-156.87744880862593
20
46.396629835815787
30
0
40
0.80000000000000016
210
0
220
-2.4651903288156619e-32
230
1
0
CIRCLE
5
115
100
AcDbEntity
8
0
100
AcDbCircle
10
-156.37744880862593
20
41.246629835815781
30
0
40
0.94999999999999996
210
0
220
-0
230
1
0
CIRCLE
5
116
100
AcDbEntity
8
0
100
AcDbCircle
10
-161.87744880862593
20
41.246629835815781
30
0
40
2.5249999999999999
210
0
220
-0
230
1
0
CIRCLE
5
117
100
AcDbEntity
8
0
100
AcDbCircle
10
-167.37744880862593
20
41.246629835815781
30
0
40
0.94999999999999996
210
0
220
-0
230
1
0
CIRCLE
5
118
100
AcDbEntity
8
0
100
AcDbCircle
10
-143.87744880862593
20
38.746629835815781
30
0
40
1.5249999999999999
210
0
220
-0
230
1
0
CIRCLE
5
119
100
AcDbEntity
8
0
100
AcDbCircle
10
-138.87744880862593
20
32.796629835815793
30
0
40
0.80000000000000016
210
0
220
-2.4651903288156619e-32
230
1
0
CIRCLE
5
120
100
AcDbEntity
8
0
100
AcDbCircle
10
-138.37744880862596
20
27.646629835815787
30
0
40
0.94999999999999996
210
0
220
-0
230
1
0
CIRCLE
5
121
100
AcDbEntity
8
0
100
AcDbCircle
10
-143.87744880862593
20
27.646629835815787
30
0
40
2.5249999999999999
210
0
220
-0
230
1
0
CIRCLE
5
122
100
AcDbEntity
8
0
100
AcDbCircle
10
-149.37744880862593
20
27.646629835815787
30
0
40
0.94999999999999996
210
0
220
-0
230
1
0
CIRCLE
5
123
100
AcDbEntity
8
0
100
AcDbCircle
10
-166.87744880862593
20
37.446629835815813
30
0
40
1.5249999999999999
210
0
220
-0
230
1
0
CIRCLE
5
124
100
AcDbEntity
8
0
100
AcDbCircle
10
-161.87744880862593
20
35.346629835815804
30
0
40
1.5249999999999999
210
0
220
-0
230
1
0
CIRCLE
5
125
100
AcDbEntity
8
0
100
AcDbCircle
10
-156.87744880862593
20
29.396629835815794
30
0
40
0.80000000000000016
210
0
220
-2.4651903288156619e-32
230
1
0
CIRCLE
5
126
100
AcDbEntity
8
0
100
AcDbCircle
10
-174.87744880862593
20
46.396629835815787
30
0
40
0.80000000000000016
210
0
220
-2.4651903288156619e-32
230
1
0
CIRCLE
5
127
100
AcDbEntity
8
0
100
AcDbCircle
10
-174.37744880862593
20
41.246629835815781
30
0
40
0.94999999999999996
210
0
220
-0
230
1
0
CIRCLE
5
128
100
AcDbEntity
8
0
100
AcDbCircle
10
-179.87744880862593
20
41.246629835815781
30
0
40
2.5249999999999999
210
0
220
-0
230
1
0
CIRCLE
5
129
100
AcDbEntity
8
0
100
AcDbCircle
10
-185.37744880862593
20
41.246629835815781
30
0
40
0.94999999999999996
210
0
220
-0
230
1
0
CIRCLE
5
130
100
AcDbEntity
8
0
100
AcDbCircle
10
-192.87744880862593
20
42.996629835815781
30
0
40
0.80000000000000016
210
0
220
-2.4651903288156619e-32
230
1
0
CIRCLE
5
131
100
AcDbEntity
8
0
100
AcDbCircle
10
-179.87744880862593
20
35.346629835815804
30
0
40
1.5249999999999999
210
0
220
-0
230
1
0
CIRCLE
5
132
100
AcDbEntity
8
0
100
AcDbCircle
10
-174.87744880862593
20
29.396629835815794
30
0
40
0.80000000000000016
210
0
220
-2.4651903288156619e-32
230
1
0
CIRCLE
5
133
100
AcDbEntity
8
0
100
AcDbCircle
10
-184.87744880862593
20
37.446629835815813
30
0
40
1.5249999999999999
210
0
220
-0
230
1
0
CIRCLE
5
134
100
AcDbEntity
8
0
100
AcDbCircle
10
-192.37744880862593
20
37.846629835815783
30
0
40
0.94999999999999996
210
0
220
-0
230
1
0
CIRCLE
5
135
100
AcDbEntity
8
0
100
AcDbCircle
10
-197.87744880862593
20
37.846629835815783
30
0
40
2.5249999999999999
210
0
220
-0
230
1
0
CIRCLE
5
136
100
AcDbEntity
8
0
100
AcDbCircle
10
-197.87744880862593
20
31.946629835815784
30
0
40
1.5249999999999999
210
0
220
-0
230
1
0
CIRCLE
5
137
100
AcDbEntity
8
0
100
AcDbCircle
10
-192.87744880862593
20
25.996629835815778
30
0
40
0.80000000000000016
210
0
220
-2.4651903288156619e-32
230
1
0
CIRCLE
5
138
100
AcDbEntity
8
0
100
AcDbCircle
10
-143.87744880862593
20
21.746629835815789
30
0
40
1.5249999999999999
210
0
220
-0
230
1
0
CIRCLE
5
139
100
AcDbEntity
8
0
100
AcDbCircle
10
-148.87744880862593
20
23.846629835815797
30
0
40
1.5249999999999999
210
0
220
-0
230
1
0
CIRCLE
5
140
100
AcDbEntity
8
0
100
AcDbCircle
10
-138.87744880862593
20
15.7966298358158
30
0
40
0.80000000000000016
210
0
220
-2.4651903288156619e-32
230
1
0
CIRCLE
5
141
100
AcDbEntity
8
0
100
AcDbCircle
10
-156.37744880862593
20
24.246629835815789
30
0
40
0.94999999999999996
210
0
220
-0
230
1
0
CIRCLE
5
142
100
AcDbEntity
8
0
100
AcDbCircle
10
-161.87744880862593
20
24.246629835815789
30
0
40
2.5249999999999999
210
0
220
-0
230
1
0
CIRCLE
5
143
100
AcDbEntity
8
0
100
AcDbCircle
10
-167.37744880862593
20
24.246629835815789
30
0
40
0.94999999999999996
210
0
220
-0
230
1
0
CIRCLE
5
144
100
AcDbEntity
8
0
100
AcDbCircle
10
-166.87744880862593
20
20.446629835815781
30
0
40
1.5249999999999999
210
0
220
-0
230
1
0
CIRCLE
5
145
100
AcDbEntity
8
0
100
AcDbCircle
10
-161.87744880862593
20
18.34662983581579
30
0
40
1.5249999999999999
210
0
220
-0
230
1
0
CIRCLE
5
146
100
AcDbEntity
8
0
100
AcDbCircle
10
-138.37744880862596
20
10.646629835815794
30
0
40
0.94999999999999996
210
0
220
-0
230
1
0
CIRCLE
5
147
100
AcDbEntity
8
0
100
AcDbCircle
10
-143.87744880862593
20
10.646629835815794
30
0
40
2.5249999999999999
210
0
220
-0
230
1
0
CIRCLE
5
148
100
AcDbEntity
8
0
100
AcDbCircle
10
-149.37744880862593
20
10.646629835815794
30
0
40
0.94999999999999996
210
0
220
-0
230
1
0
CIRCLE
5
149
100
AcDbEntity
8
0
100
AcDbCircle
10
-148.87744880862593
20
6.8466298358157873
30
0
40
1.5249999999999999
210
0
220
-0
230
1
0
CIRCLE
5
150
100
AcDbEntity
8
0
100
AcDbCircle
10
-143.87744880862593
20
4.7466298358157788
30
0
40
1.5249999999999999
210
0
220
-0
230
1
0
CIRCLE
5
151
100
AcDbEntity
8
0
100
AcDbCircle
10
-156.87744880862593
20
12.396629835815784
30
0
40
0.80000000000000016
210
0
220
-2.4651903288156619e-32
230
1
0
CIRCLE
5
152
100
AcDbEntity
8
0
100
AcDbCircle
10
-156.37744880862593
20
7.2466298358157788
30
0
40
0.94999999999999996
210
0
220
-0
230
1
0
CIRCLE
5
153
100
AcDbEntity
8
0
100
AcDbCircle
10
-161.87744880862593
20
7.2466298358157788
30
0
40
2.5249999999999999
210
0
220
-0
230
1
0
CIRCLE
5
154
100
AcDbEntity
8
0
100
AcDbCircle
10
-167.37744880862593
20
7.2466298358157788
30
0
40
0.94999999999999996
210
0
220
-0
230
1
0
CIRCLE
5
155
100
AcDbEntity
8
0
100
AcDbCircle
10
-166.87744880862593
20
3.4466298358157887
30
0
40
1.5249999999999999
210
0
220
-0
230
1
0
CIRCLE
5
156
100
AcDbEntity
8
0
100
AcDbCircle
10
-161.87744880862593
20
1.3466298358157982
30
0
40
1.5249999999999999
210
0
220
-0
230
1
0
CIRCLE
5
157
100
AcDbEntity
8
0
100
AcDbCircle
10
-174.37744880862593
20
24.246629835815789
30
0
40
0.94999999999999996
210
0
220
-0
230
1
0
CIRCLE
5
158
100
AcDbEntity
8
0
100
AcDbCircle
10
-179.87744880862593
20
24.246629835815789
30
0
40
2.5249999999999999
210
0
220
-0
230
1
0
CIRCLE
5
159
100
AcDbEntity
8
0
100
AcDbCircle
10
-179.87744880862593
20
18.34662983581579
30
0
40
1.5249999999999999
210
0
220
-0
230
1
0
CIRCLE
5
160
100
AcDbEntity
8
0
100
AcDbCircle
10
-185.37744880862593
20
24.246629835815789
30
0
40
0.94999999999999996
210
0
220
-0
230
1
0
CIRCLE
5
161
100
AcDbEntity
8
0
100
AcDbCircle
10
-184.87744880862593
20
20.446629835815781
30
0
40
1.5249999999999999
210
0
220
-0
230
1
0
CIRCLE
5
162
100
AcDbEntity
8
0
100
AcDbCircle
10
-192.37744880862593
20
20.84662983581579
30
0
40
0.94999999999999996
210
0
220
-0
230
1
0
CIRCLE
5
163
100
AcDbEntity
8
0
100
AcDbCircle
10
-197.87744880862593
20
20.84662983581579
30
0
40
2.5249999999999999
210
0
220
-0
230
1
0
CIRCLE
5
164
100
AcDbEntity
8
0
100
AcDbCircle
10
-197.87744880862593
20
14.946629835815791
30
0
40
1.5249999999999999
210
0
220
-0
230
1
0
CIRCLE
5
165
100
AcDbEntity
8
0
100
AcDbCircle
10
-174.87744880862593
20
12.396629835815784
30
0
40
0.80000000000000016
210
0
220
-2.4651903288156619e-32
230
1
0
CIRCLE
5
166
100
AcDbEntity
8
0
100
AcDbCircle
10
-174.37744880862593
20
7.2466298358157788
30
0
40
0.94999999999999996
210
0
220
-0
230
1
0
CIRCLE
5
167
100
AcDbEntity
8
0
100
AcDbCircle
10
-179.87744880862593
20
7.2466298358157788
30
0
40
2.5249999999999999
210
0
220
-0
230
1
0
CIRCLE
5
168
100
AcDbEntity
8
0
100
AcDbCircle
10
-179.87744880862593
20
1.3466298358157982
30
0
40
1.5249999999999999
210
0
220
-0
230
1
0
CIRCLE
5
169
100
AcDbEntity
8
0
100
AcDbCircle
10
-185.37744880862593
20
7.2466298358157788
30
0
40
0.94999999999999996
210
0
220
-0
230
1
0
CIRCLE
5
170
100
AcDbEntity
8
0
100
AcDbCircle
10
-192.87744880862593
20
8.996629835815785
30
0
40
0.80000000000000016
210
0
220
-2.4651903288156619e-32
230
1
0
CIRCLE
5
171
100
AcDbEntity
8
0
100
AcDbCircle
10
-184.87744880862593
20
3.4466298358157887
30
0
40
1.5249999999999999
210
0
220
-0
230
1
0
CIRCLE
5
172
100
AcDbEntity
8
0
100
AcDbCircle
10
-192.37744880862593
20
3.846629835815798
30
0
40
0.94999999999999996
210
0
220
-0
230
1
0
CIRCLE
5
173
100
AcDbEntity
8
0
100
AcDbCircle
10
-197.87744880862593
20
3.846629835815798
30
0
40
2.5249999999999999
210
0
220
-0
230
1
0
CIRCLE
5
174
100
AcDbEntity
8
0
100
AcDbCircle
10
-210.87744880862596
20
46.396629835815787
30
0
40
0.80000000000000016
210
0
220
-2.4651903288156619e-32
230
1
0
CIRCLE
5
175
100
AcDbEntity
8
0
100
AcDbCircle
10
-210.37744880862593
20
41.246629835815781
30
0
40
0.94999999999999996
210
0
220
-0
230
1
0
CIRCLE
5
176
100
AcDbEntity
8
0
100
AcDbCircle
10
-215.87744880862596
20
41.246629835815781
30
0
40
2.5249999999999999
210
0
220
-0
230
1
0
CIRCLE
5
177
100
AcDbEntity
8
0
100
AcDbCircle
10
-221.37744880862596
20
41.246629835815781
30
0
40
0.94999999999999996
210
0
220
-0
230
1
0
CIRCLE
5
178
100
AcDbEntity
8
0
100
AcDbCircle
10
-203.37744880862596
20
37.846629835815783
30
0
40
0.94999999999999996
210
0
220
-0
230
1
0
CIRCLE
5
179
100
AcDbEntity
8
0
100
AcDbCircle
10
-202.87744880862593
20
34.046629835815793
30
0
40
1.5249999999999999
210
0
220
-0
230
1
0
CIRCLE
5
180
100
AcDbEntity
8
0
100
AcDbCircle
10
-210.87744880862596
20
29.396629835815794
30
0
40
0.80000000000000016
210
0
220
-2.4651903288156619e-32
230
1
0
CIRCLE
5
181
100
AcDbEntity
8
0
100
AcDbCircle
10
-220.87744880862596
20
37.446629835815813
30
0
40
1.5249999999999999
210
0
220
-0
230
1
0
CIRCLE
5
182
100
AcDbEntity
8
0
100
AcDbCircle
10
-215.87744880862596
20
35.346629835815804
30
0
40
1.5249999999999999
210
0
220
-0
230
1
0
CIRCLE
5
183
100
AcDbEntity
8
0
100
AcDbCircle
10
-228.87744880862596
20
32.796629835815793
30
0
40
0.80000000000000016
210
0
220
-2.4651903288156619e-32
230
1
0
CIRCLE
5
184
100
AcDbEntity
8
0
100
AcDbCircle
10
-228.37744880862596
20
27.646629835815787
30
0
40
0.94999999999999996
210
0
220
-0
230
1
0
CIRCLE
5
185
100
AcDbEntity
8
0
100
AcDbCircle
10
-233.87744880862596
20
27.646629835815787
30
0
40
2.5249999999999999
210
0
220
-0
230
1
0
CIRCLE
5
186
100
AcDbEntity
8
0
100
AcDbCircle
10
-239.37744880862596
20
27.646629835815787
30
0
40
0.94999999999999996
210
0
220
-0
230
1
0
CIRCLE
5
187
100
AcDbEntity
8
0
100
AcDbCircle
10
-246.37744880862596
20
27.646629835815787
30
0
40
0.94999999999999996
210
0
220
-0
230
1
0
CIRCLE
5
188
100
AcDbEntity
8
0
100
AcDbCircle
10
-246.87744880862596
20
32.796629835815793
30
0
40
0.80000000000000016
210
0
220
-2.4651903288156619e-32
230
1
0
CIRCLE
5
189
100
AcDbEntity
8
0
100
AcDbCircle
10
-251.87744880862596
20
27.646629835815787
30
0
40
2.5249999999999999
210
0
220
-0
230
1
0
CIRCLE
5
190
100
AcDbEntity
8
0
100
AcDbCircle
10
-257.3774488086259
20
27.646629835815787
30
0
40
0.94999999999999996
210
0
220
-0
230
1
0
CIRCLE
5
191
100
AcDbEntity
8
0
100
AcDbCircle
10
-203.37744880862596
20
20.84662983581579
30
0
40
0.94999999999999996
210
0
220
-0
230
1
0
CIRCLE
5
192
100
AcDbEntity
8
0
100
AcDbCircle
10
-210.37744880862593
20
24.246629835815789
30
0
40
0.94999999999999996
210
0
220
-0
230
1
0
CIRCLE
5
193
100
AcDbEntity
8
0
100
AcDbCircle
10
-202.87744880862593
20
17.0466298358158
30
0
40
1.5249999999999999
210
0
220
-0
230
1
0
CIRCLE
5
194
100
AcDbEntity
8
0
100
AcDbCircle
10
-215.87744880862596
20
24.246629835815789
30
0
40
2.5249999999999999
210
0
220
-0
230
1
0
CIRCLE
5
195
100
AcDbEntity
8
0
100
AcDbCircle
10
-221.37744880862596
20
24.246629835815789
30
0
40
0.94999999999999996
210
0
220
-0
230
1
0
CIRCLE
5
196
100
AcDbEntity
8
0
100
AcDbCircle
10
-220.87744880862596
20
20.446629835815781
30
0
40
1.5249999999999999
210
0
220
-0
230
1
0
CIRCLE
5
197
100
AcDbEntity
8
0
100
AcDbCircle
10
-215.87744880862596
20
18.34662983581579
30
0
40
1.5249999999999999
210
0
220
-0
230
1
0
CIRCLE
5
198
100
AcDbEntity
8
0
100
AcDbCircle
10
-228.87744880862596
20
15.7966298358158
30
0
40
0.80000000000000016
210
0
220
-2.4651903288156619e-32
230
1
0
CIRCLE
5
199
100
AcDbEntity
8
0
100
AcDbCircle
10
-210.87744880862596
20
12.396629835815784
30
0
40
0.80000000000000016
210
0
220
-2.4651903288156619e-32
230
1
0
CIRCLE
5
200
100
AcDbEntity
8
0
100
AcDbCircle
10
-210.37744880862593
20
7.2466298358157788
30
0
40
0.94999999999999996
210
0
220
-0
230
1
0
CIRCLE
5
201
100
AcDbEntity
8
0
100
AcDbCircle
10
-203.37744880862596
20
3.846629835815798
30
0
40
0.94999999999999996
210
0
220
-0
230
1
0
CIRCLE
5
202
100
AcDbEntity
8
0
100
AcDbCircle
10
-202.87744880862593
20
0.046629835815790333
30
0
40
1.5249999999999999
210
0
220
-0
230
1
0
CIRCLE
5
203
100
AcDbEntity
8
0
100
AcDbCircle
10
-215.87744880862596
20
7.2466298358157788
30
0
40
2.5249999999999999
210
0
220
-0
230
1
0
CIRCLE
5
204
100
AcDbEntity
8
0
100
AcDbCircle
10
-221.37744880862596
20
7.2466298358157788
30
0
40
0.94999999999999996
210
0
220
-0
230
1
0
CIRCLE
5
205
100
AcDbEntity
8
0
100
AcDbCircle
10
-228.37744880862596
20
10.646629835815794
30
0
40
0.94999999999999996
210
0
220
-0
230
1
0
CIRCLE
5
206
100
AcDbEntity
8
0
100
AcDbCircle
10
-220.87744880862596
20
3.4466298358157887
30
0
40
1.5249999999999999
210
0
220
-0
230
1
0
CIRCLE
5
207
100
AcDbEntity
8
0
100
AcDbCircle
10
-215.87744880862596
20
1.3466298358157982
30
0
40
1.5249999999999999
210
0
220
-0
230
1
0
CIRCLE
5
208
100
AcDbEntity
8
0
100
AcDbCircle
10
-233.87744880862596
20
21.746629835815789
30
0
40
1.5249999999999999
210
0
220
-0
230
1
0
CIRCLE
5
209
100
AcDbEntity
8
0
100
AcDbCircle
10
-238.87744880862596
20
23.846629835815797
30
0
40
1.5249999999999999
210
0
220
-0
230
1
0
CIRCLE
5
210
100
AcDbEntity
8
0
100
AcDbCircle
10
-251.87744880862596
20
21.746629835815789
30
0
40
1.5249999999999999
210
0
220
-0
230
1
0
CIRCLE
5
211
100
AcDbEntity
8
0
100
AcDbCircle
10
-256.87744880862596
20
23.846629835815797
30
0
40
1.5249999999999999
210
0
220
-0
230
1
0
CIRCLE
5
212
100
AcDbEntity
8
0
100
AcDbCircle
10
-246.87744880862596
20
15.7966298358158
30
0
40
0.80000000000000016
210
0
220
-2.4651903288156619e-32
230
1
0
CIRCLE
5
213
100
AcDbEntity
8
0
100
AcDbCircle
10
-233.87744880862596
20
10.646629835815794
30
0
40
2.5249999999999999
210
0
220
-0
230
1
0
CIRCLE
5
214
100
AcDbEntity
8
0
100
AcDbCircle
10
-239.37744880862596
20
10.646629835815794
30
0
40
0.94999999999999996
210
0
220
-0
230
1
0
CIRCLE
5
215
100
AcDbEntity
8
0
100
AcDbCircle
10
-246.37744880862596
20
10.646629835815794
30
0
40
0.94999999999999996
210
0
220
-0
230
1
0
CIRCLE
5
216
100
AcDbEntity
8
0
100
AcDbCircle
10
-238.87744880862596
20
6.8466298358157873
30
0
40
1.5249999999999999
210
0
220
-0
230
1
0
CIRCLE
5
217
100
AcDbEntity
8
0
100
AcDbCircle
10
-233.87744880862596
20
4.7466298358157788
30
0
40
1.5249999999999999
210
0
220
-0
230
1
0
CIRCLE
5
218
100
AcDbEntity
8
0
100
AcDbCircle
10
-251.87744880862596
20
10.646629835815794
30
0
40
2.5249999999999999
210
0
220
-0
230
1
0
CIRCLE
5
219
100
AcDbEntity
8
0
100
AcDbCircle
10
-257.3774488086259
20
10.646629835815794
30
0
40
0.94999999999999996
210
0
220
-0
230
1
0
CIRCLE
5
220
100
AcDbEntity
8
0
100
AcDbCircle
10
-256.87744880862596
20
6.8466298358157873
30
0
40
1.5249999999999999
210
0
220
-0
230
1
0
CIRCLE
5
221
100
AcDbEntity
8
0
100
AcDbCircle
10
-251.87744880862596
20
4.7466298358157788
30
0
40
1.5249999999999999
210
0
220
-0
230
1
0
CIRCLE
5
222
100
AcDbEntity
8
0
100
AcDbCircle
10
-138.87744880862593
20
-1.2033701641842096
30
0
40
0.80000000000000016
210
0
220
-2.4651903288156619e-32
230
1
0
CIRCLE
5
223
100
AcDbEntity
8
0
100
AcDbCircle
10
-138.37744880862596
20
-6.3533701641842155
30
0
40
0.94999999999999996
210
0
220
-0
230
1
0
CIRCLE
5
224
100
AcDbEntity
8
0
100
AcDbCircle
10
-143.87744880862593
20
-6.3533701641842155
30
0
40
2.5249999999999999
210
0
220
-0
230
1
0
CIRCLE
5
225
100
AcDbEntity
8
0
100
AcDbCircle
10
-149.37744880862593
20
-6.3533701641842155
30
0
40
0.94999999999999996
210
0
220
-0
230
1
0
CIRCLE
5
226
100
AcDbEntity
8
0
100
AcDbCircle
10
-143.87744880862593
20
-12.253370164184215
30
0
40
1.5249999999999999
210
0
220
-0
230
1
0
CIRCLE
5
227
100
AcDbEntity
8
0
100
AcDbCircle
10
-148.87744880862593
20
-10.153370164184206
30
0
40
1.5249999999999999
210
0
220
-0
230
1
0
CIRCLE
5
228
100
AcDbEntity
8
0
100
AcDbCircle
10
-156.87744880862593
20
-4.6033701641842084
30
0
40
0.80000000000000016
210
0
220
-2.4651903288156619e-32
230
1
0
CIRCLE
5
229
100
AcDbEntity
8
0
100
AcDbCircle
10
-156.37744880862593
20
-9.753370164184215
30
0
40
0.94999999999999996
210
0
220
-0
230
1
0
CIRCLE
5
230
100
AcDbEntity
8
0
100
AcDbCircle
10
-161.87744880862593
20
-9.753370164184215
30
0
40
2.5249999999999999
210
0
220
-0
230
1
0
CIRCLE
5
231
100
AcDbEntity
8
0
100
AcDbCircle
10
-167.37744880862593
20
-9.753370164184215
30
0
40
0.94999999999999996
210
0
220
-0
230
1
0
CIRCLE
5
232
100
AcDbEntity
8
0
100
AcDbCircle
10
-166.87744880862593
20
-13.553370164184212
30
0
40
1.5249999999999999
210
0
220
-0
230
1
0
CIRCLE
5
233
100
AcDbEntity
8
0
100
AcDbCircle
10
-138.87744880862593
20
-18.203370164184204
30
0
40
0.80000000000000016
210
0
220
-2.4651903288156619e-32
230
1
0
CIRCLE
5
234
100
AcDbEntity
8
0
100
AcDbCircle
10
-138.37744880862596
20
-23.353370164184209
30
0
40
0.94999999999999996
210
0
220
-0
230
1
0
CIRCLE
5
235
100
AcDbEntity
8
0
100
AcDbCircle
10
-143.87744880862593
20
-23.353370164184209
30
0
40
2.5249999999999999
210
0
220
-0
230
1
0
CIRCLE
5
236
100
AcDbEntity
8
0
100
AcDbCircle
10
-149.37744880862593
20
-23.353370164184209
30
0
40
0.94999999999999996
210
0
220
-0
230
1
0
CIRCLE
5
237
100
AcDbEntity
8
0
100
AcDbCircle
10
-148.87744880862593
20
-27.153370164184206
30
0
40
1.5249999999999999
210
0
220
-0
230
1
0
CIRCLE
5
238
100
AcDbEntity
8
0
100
AcDbCircle
10
-161.87744880862593
20
-15.653370164184214
30
0
40
1.5249999999999999
210
0
220
-0
230
1
0
CIRCLE
5
239
100
AcDbEntity
8
0
100
AcDbCircle
10
-156.87744880862593
20
-21.603370164184209
30
0
40
0.80000000000000016
210
0
220
-2.4651903288156619e-32
230
1
0
CIRCLE
5
240
100
AcDbEntity
8
0
100
AcDbCircle
10
-156.37744880862593
20
-26.753370164184215
30
0
40
0.94999999999999996
210
0
220
-0
230
1
0
CIRCLE
5
241
100
AcDbEntity
8
0
100
AcDbCircle
10
-161.87744880862593
20
-26.753370164184215
30
0
40
2.5249999999999999
210
0
220
-0
230
1
0
CIRCLE
5
242
100
AcDbEntity
8
0
100
AcDbCircle
10
-167.37744880862593
20
-26.753370164184215
30
0
40
0.94999999999999996
210
0
220
-0
230
1
0
CIRCLE
5
243
100
AcDbEntity
8
0
100
AcDbCircle
10
-174.87744880862593
20
-4.6033701641842084
30
0
40
0.80000000000000016
210
0
220
-2.4651903288156619e-32
230
1
0
CIRCLE
5
244
100
AcDbEntity
8
0
100
AcDbCircle
10
-174.37744880862593
20
-9.753370164184215
30
0
40
0.94999999999999996
210
0
220
-0
230
1
0
CIRCLE
5
245
100
AcDbEntity
8
0
100
AcDbCircle
10
-179.87744880862593
20
-9.753370164184215
30
0
40
2.5249999999999999
210
0
220
-0
230
1
0
CIRCLE
5
246
100
AcDbEntity
8
0
100
AcDbCircle
10
-197.87744880862593
20
-2.0533701641842179
30
0
40
1.5249999999999999
210
0
220
-0
230
1
0
CIRCLE
5
247
100
AcDbEntity
8
0
100
AcDbCircle
10
-185.37744880862593
20
-9.753370164184215
30
0
40
0.94999999999999996
210
0
220
-0
230
1
0
CIRCLE
5
248
100
AcDbEntity
8
0
100
AcDbCircle
10
-184.87744880862593
20
-13.553370164184212
30
0
40
1.5249999999999999
210
0
220
-0
230
1
0
CIRCLE
5
249
100
AcDbEntity
8
0
100
AcDbCircle
10
-192.87744880862593
20
-8.0033701641842256
30
0
40
0.80000000000000016
210
0
220
-2.4651903288156619e-32
230
1
0
CIRCLE
5
250
100
AcDbEntity
8
0
100
AcDbCircle
10
-192.37744880862593
20
-13.153370164184214
30
0
40
0.94999999999999996
210
0
220
-0
230
1
0
CIRCLE
5
251
100
AcDbEntity
8
0
100
AcDbCircle
10
-197.87744880862593
20
-13.153370164184214
30
0
40
2.5249999999999999
210
0
220
-0
230
1
0
CIRCLE
5
252
100
AcDbEntity
8
0
100
AcDbCircle
10
-179.87744880862593
20
-15.653370164184214
30
0
40
1.5249999999999999
210
0
220
-0
230
1
0
CIRCLE
5
253
100
AcDbEntity
8
0
100
AcDbCircle
10
-174.87744880862593
20
-21.603370164184209
30
0
40
0.80000000000000016
210
0
220
-2.4651903288156619e-32
230
1
0
CIRCLE
5
254
100
AcDbEntity
8
0
100
AcDbCircle
10
-174.37744880862593
20
-26.753370164184215
30
0
40
0.94999999999999996
210
0
220
-0
230
1
0
CIRCLE
5
255
100
AcDbEntity
8
0
100
AcDbCircle
10
-179.87744880862593
20
-26.753370164184215
30
0
40
2.5249999999999999
210
0
220
-0
230
1
0
CIRCLE
5
256
100
AcDbEntity
8
0
100
AcDbCircle
10
-197.87744880862593
20
-19.053370164184212
30
0
40
1.5249999999999999
210
0
220
-0
230
1
0
CIRCLE
5
257
100
AcDbEntity
8
0
100
AcDbCircle
10
-185.37744880862593
20
-26.753370164184215
30
0
40
0.94999999999999996
210
0
220
-0
230
1
0
CIRCLE
5
258
100
AcDbEntity
8
0
100
AcDbCircle
10
-192.87744880862593
20
-25.003370164184219
30
0
40
0.80000000000000016
210
0
220
-2.4651903288156619e-32
230
1
0
CIRCLE
5
259
100
AcDbEntity
8
0
100
AcDbCircle
10
-143.87744880862593
20
-29.253370164184208
30
0
40
1.5249999999999999
210
0
220
-0
230
1
0
CIRCLE
5
260
100
AcDbEntity
8
0
100
AcDbCircle
10
-138.87744880862593
20
-35.203370164184214
30
0
40
0.80000000000000016
210
0
220
-2.4651903288156619e-32
230
1
0
CIRCLE
5
261
100
AcDbEntity
8
0
100
AcDbCircle
10
-138.37744880862596
20
-40.353370164184206
30
0
40
0.94999999999999996
210
0
220
-0
230
1
0
CIRCLE
5
262
100
AcDbEntity
8
0
100
AcDbCircle
10
-143.87744880862593
20
-40.353370164184206
30
0
40
2.5249999999999999
210
0
220
-0
230
1
0
CIRCLE
5
263
100
AcDbEntity
8
0
100
AcDbCircle
10
-149.37744880862593
20
-40.353370164184206
30
0
40
0.94999999999999996
210
0
220
-0
230
1
0
CIRCLE
5
264
100
AcDbEntity
8
0
100
AcDbCircle
10
-166.87744880862593
20
-30.553370164184216
30
0
40
1.5249999999999999
210
0
220
-0
230
1
0
CIRCLE
5
265
100
AcDbEntity
8
0
100
AcDbCircle
10
-161.87744880862593
20
-32.653370164184203
30
0
40
1.5249999999999999
210
0
220
-0
230
1
0
CIRCLE
5
266
100
AcDbEntity
8
0
100
AcDbCircle
10
-156.87744880862593
20
-38.603370164184213
30
0
40
0.80000000000000016
210
0
220
-2.4651903288156619e-32
230
1
0
CIRCLE
5
267
100
AcDbEntity
8
0
100
AcDbCircle
10
-143.87744880862593
20
-46.253370164184204
30
0
40
1.5249999999999999
210
0
220
-0
230
1
0
CIRCLE
5
268
100
AcDbEntity
8
0
100
AcDbCircle
10
-148.87744880862593
20
-44.15337016418421
30
0
40
1.5249999999999999
210
0
220
-0
230
1
0
CIRCLE
5
269
100
AcDbEntity
8
0
100
AcDbCircle
10
-156.37744880862593
20
-43.753370164184204
30
0
40
0.94999999999999996
210
0
220
-0
230
1
0
CIRCLE
5
270
100
AcDbEntity
8
0
100
AcDbCircle
10
-161.87744880862593
20
-43.753370164184204
30
0
40
2.5249999999999999
210
0
220
-0
230
1
0
CIRCLE
5
271
100
AcDbEntity
8
0
100
AcDbCircle
10
-167.37744880862593
20
-43.753370164184204
30
0
40
0.94999999999999996
210
0
220
-0
230
1
0
CIRCLE
5
272
100
AcDbEntity
8
0
100
AcDbCircle
10
-166.87744880862593
20
-47.553370164184216
30
0
40
1.5249999999999999
210
0
220
-0
230
1
0
CIRCLE
5
273
100
AcDbEntity
8
0
100
AcDbCircle
10
-161.87744880862593
20
-49.653370164184203
30
0
40
1.5249999999999999
210
0
220
-0
230
1
0
CIRCLE
5
274
100
AcDbEntity
8
0
100
AcDbCircle
10
-179.87744880862593
20
-32.653370164184203
30
0
40
1.5249999999999999
210
0
220
-0
230
1
0
CIRCLE
5
275
100
AcDbEntity
8
0
100
AcDbCircle
10
-174.87744880862593
20
-38.603370164184213
30
0
40
0.80000000000000016
210
0
220
-2.4651903288156619e-32
230
1
0
CIRCLE
5
276
100
AcDbEntity
8
0
100
AcDbCircle
10
-184.87744880862593
20
-30.553370164184216
30
0
40
1.5249999999999999
210
0
220
-0
230
1
0
CIRCLE
5
277
100
AcDbEntity
8
0
100
AcDbCircle
10
-192.37744880862593
20
-30.153370164184206
30
0
40
0.94999999999999996
210
0
220
-0
230
1
0
CIRCLE
5
278
100
AcDbEntity
8
0
100
AcDbCircle
10
-197.87744880862593
20
-30.153370164184206
30
0
40
2.5249999999999999
210
0
220
-0
230
1
0
CIRCLE
5
279
100
AcDbEntity
8
0
100
AcDbCircle
10
-197.87744880862593
20
-36.053370164184216
30
0
40
1.5249999999999999
210
0
220
-0
230
1
0
CIRCLE
5
280
100
AcDbEntity
8
0
100
AcDbCircle
10
-174.37744880862593
20
-43.753370164184204
30
0
40
0.94999999999999996
210
0
220
-0
230
1
0
CIRCLE
5
281
100
AcDbEntity
8
0
100
AcDbCircle
10
-179.87744880862593
20
-43.753370164184204
30
0
40
2.5249999999999999
210
0
220
-0
230
1
0
CIRCLE
5
282
100
AcDbEntity
8
0
100
AcDbCircle
10
-179.87744880862593
20
-49.653370164184203
30
0
40
1.5249999999999999
210
0
220
-0
230
1
0
CIRCLE
5
283
100
AcDbEntity
8
0
100
AcDbCircle
10
-185.37744880862593
20
-43.753370164184204
30
0
40
0.94999999999999996
210
0
220
-0
230
1
0
CIRCLE
5
284
100
AcDbEntity
8
0
100
AcDbCircle
10
-184.87744880862593
20
-47.553370164184216
30
0
40
1.5249999999999999
210
0
220
-0
230
1
0
CIRCLE
5
285
100
AcDbEntity
8
0
100
AcDbCircle
10
-192.87744880862593
20
-42.003370164184219
30
0
40
0.80000000000000016
210
0
220
-2.4651903288156619e-32
230
1
0
CIRCLE
5
286
100
AcDbEntity
8
0
100
AcDbCircle
10
-192.37744880862593
20
-47.153370164184203
30
0
40
0.94999999999999996
210
0
220
-0
230
1
0
CIRCLE
5
287
100
AcDbEntity
8
0
100
AcDbCircle
10
-197.87744880862593
20
-47.153370164184203
30
0
40
2.5249999999999999
210
0
220
-0
230
1
0
CIRCLE
5
288
100
AcDbEntity
8
0
100
AcDbCircle
10
-197.87744880862593
20
-53.053370164184216
30
0
40
1.5249999999999999
210
0
220
-0
230
1
0
CIRCLE
5
289
100
AcDbEntity
8
0
100
AcDbCircle
10
-210.87744880862596
20
-4.6033701641842084
30
0
40
0.80000000000000016
210
0
220
-2.4651903288156619e-32
230
1
0
CIRCLE
5
290
100
AcDbEntity
8
0
100
AcDbCircle
10
-203.37744880862596
20
-13.153370164184214
30
0
40
0.94999999999999996
210
0
220
-0
230
1
0
CIRCLE
5
291
100
AcDbEntity
8
0
100
AcDbCircle
10
-210.37744880862593
20
-9.753370164184215
30
0
40
0.94999999999999996
210
0
220
-0
230
1
0
CIRCLE
5
292
100
AcDbEntity
8
0
100
AcDbCircle
10
-228.87744880862596
20
-1.2033701641842096
30
0
40
0.80000000000000016
210
0
220
-2.4651903288156619e-32
230
1
0
CIRCLE
5
293
100
AcDbEntity
8
0
100
AcDbCircle
10
-228.37744880862596
20
-6.3533701641842155
30
0
40
0.94999999999999996
210
0
220
-0
230
1
0
CIRCLE
5
294
100
AcDbEntity
8
0
100
AcDbCircle
10
-215.87744880862596
20
-9.753370164184215
30
0
40
2.5249999999999999
210
0
220
-0
230
1
0
CIRCLE
5
295
100
AcDbEntity
8
0
100
AcDbCircle
10
-221.37744880862596
20
-9.753370164184215
30
0
40
0.94999999999999996
210
0
220
-0
230
1
0
CIRCLE
5
296
100
AcDbEntity
8
0
100
AcDbCircle
10
-220.87744880862596
20
-13.553370164184212
30
0
40
1.5249999999999999
210
0
220
-0
230
1
0
CIRCLE
5
297
100
AcDbEntity
8
0
100
AcDbCircle
10
-202.87744880862593
20
-16.953370164184204
30
0
40
1.5249999999999999
210
0
220
-0
230
1
0
CIRCLE
5
298
100
AcDbEntity
8
0
100
AcDbCircle
10
-210.87744880862596
20
-21.603370164184209
30
0
40
0.80000000000000016
210
0
220
-2.4651903288156619e-32
230
1
0
CIRCLE
5
299
100
AcDbEntity
8
0
100
AcDbCircle
10
-210.37744880862593
20
-26.753370164184215
30
0
40
0.94999999999999996
210
0
220
-0
230
1
0
CIRCLE
5
300
100
AcDbEntity
8
0
100
AcDbCircle
10
-215.87744880862596
20
-15.653370164184214
30
0
40
1.5249999999999999
210
0
220
-0
230
1
0
CIRCLE
5
301
100
AcDbEntity
8
0
100
AcDbCircle
10
-228.87744880862596
20
-18.203370164184204
30
0
40
0.80000000000000016
210
0
220
-2.4651903288156619e-32
230
1
0
CIRCLE
5
302
100
AcDbEntity
8
0
100
AcDbCircle
10
-215.87744880862596
20
-26.753370164184215
30
0
40
2.5249999999999999
210
0
220
-0
230
1
0
CIRCLE
5
303
100
AcDbEntity
8
0
100
AcDbCircle
10
-221.37744880862596
20
-26.753370164184215
30
0
40
0.94999999999999996
210
0
220
-0
230
1
0
CIRCLE
5
304
100
AcDbEntity
8
0
100
AcDbCircle
10
-228.37744880862596
20
-23.353370164184209
30
0
40
0.94999999999999996
210
0
220
-0
230
1
0
CIRCLE
5
305
100
AcDbEntity
8
0
100
AcDbCircle
10
-233.87744880862596
20
-6.3533701641842155
30
0
40
2.5249999999999999
210
0
220
-0
230
1
0
CIRCLE
5
306
100
AcDbEntity
8
0
100
AcDbCircle
10
-239.37744880862596
20
-6.3533701641842155
30
0
40
0.94999999999999996
210
0
220
-0
230
1
0
CIRCLE
5
307
100
AcDbEntity
8
0
100
AcDbCircle
10
-246.37744880862596
20
-6.3533701641842155
30
0
40
0.94999999999999996
210
0
220
-0
230
1
0
CIRCLE
5
308
100
AcDbEntity
8
0
100
AcDbCircle
10
-233.87744880862596
20
-12.253370164184215
30
0
40
1.5249999999999999
210
0
220
-0
230
1
0
CIRCLE
5
309
100
AcDbEntity
8
0
100
AcDbCircle
10
-238.87744880862596
20
-10.153370164184206
30
0
40
1.5249999999999999
210
0
220
-0
230
1
0
CIRCLE
5
310
100
AcDbEntity
8
0
100
AcDbCircle
10
-246.87744880862596
20
-1.2033701641842096
30
0
40
0.80000000000000016
210
0
220
-2.4651903288156619e-32
230
1
0
CIRCLE
5
311
100
AcDbEntity
8
0
100
AcDbCircle
10
-251.87744880862596
20
-6.3533701641842155
30
0
40
2.5249999999999999
210
0
220
-0
230
1
0
CIRCLE
5
312
100
AcDbEntity
8
0
100
AcDbCircle
10
-257.3774488086259
20
-6.3533701641842155
30
0
40
0.94999999999999996
210
0
220
-0
230
1
0
CIRCLE
5
313
100
AcDbEntity
8
0
100
AcDbCircle
10
-251.87744880862596
20
-12.253370164184215
30
0
40
1.5249999999999999
210
0
220
-0
230
1
0
CIRCLE
5
314
100
AcDbEntity
8
0
100
AcDbCircle
10
-256.87744880862596
20
-10.153370164184206
30
0
40
1.5249999999999999
210
0
220
-0
230
1
0
CIRCLE
5
315
100
AcDbEntity
8
0
100
AcDbCircle
10
-233.87744880862596
20
-23.353370164184209
30
0
40
2.5249999999999999
210
0
220
-0
230
1
0
CIRCLE
5
316
100
AcDbEntity
8
0
100
AcDbCircle
10
-239.37744880862596
20
-23.353370164184209
30
0
40
0.94999999999999996
210
0
220
-0
230
1
0
CIRCLE
5
317
100
AcDbEntity
8
0
100
AcDbCircle
10
-246.37744880862596
20
-23.353370164184209
30
0
40
0.94999999999999996
210
0
220
-0
230
1
0
CIRCLE
5
318
100
AcDbEntity
8
0
100
AcDbCircle
10
-238.87744880862596
20
-27.153370164184206
30
0
40
1.5249999999999999
210
0
220
-0
230
1
0
CIRCLE
5
319
100
AcDbEntity
8
0
100
AcDbCircle
10
-246.87744880862596
20
-18.203370164184204
30
0
40
0.80000000000000016
210
0
220
-2.4651903288156619e-32
230
1
0
CIRCLE
5
320
100
AcDbEntity
8
0
100
AcDbCircle
10
-251.87744880862596
20
-23.353370164184209
30
0
40
2.5249999999999999
210
0
220
-0
230
1
0
CIRCLE
5
321
100
AcDbEntity
8
0
100
AcDbCircle
10
-257.3774488086259
20
-23.353370164184209
30
0
40
0.94999999999999996
210
0
220
-0
230
1
0
CIRCLE
5
322
100
AcDbEntity
8
0
100
AcDbCircle
10
-256.87744880862596
20
-27.153370164184206
30
0
40
1.5249999999999999
210
0
220
-0
230
1
0
CIRCLE
5
323
100
AcDbEntity
8
0
100
AcDbCircle
10
-203.37744880862596
20
-30.153370164184206
30
0
40
0.94999999999999996
210
0
220
-0
230
1
0
CIRCLE
5
324
100
AcDbEntity
8
0
100
AcDbCircle
10
-202.87744880862593
20
-33.953370164184214
30
0
40
1.5249999999999999
210
0
220
-0
230
1
0
CIRCLE
5
325
100
AcDbEntity
8
0
100
AcDbCircle
10
-210.87744880862596
20
-38.603370164184213
30
0
40
0.80000000000000016
210
0
220
-2.4651903288156619e-32
230
1
0
CIRCLE
5
326
100
AcDbEntity
8
0
100
AcDbCircle
10
-220.87744880862596
20
-30.553370164184216
30
0
40
1.5249999999999999
210
0
220
-0
230
1
0
CIRCLE
5
327
100
AcDbEntity
8
0
100
AcDbCircle
10
-215.87744880862596
20
-32.653370164184203
30
0
40
1.5249999999999999
210
0
220
-0
230
1
0
CIRCLE
5
328
100
AcDbEntity
8
0
100
AcDbCircle
10
-228.87744880862596
20
-35.203370164184214
30
0
40
0.80000000000000016
210
0
220
-2.4651903288156619e-32
230
1
0
CIRCLE
5
329
100
AcDbEntity
8
0
100
AcDbCircle
10
-228.37744880862596
20
-40.353370164184206
30
0
40
0.94999999999999996
210
0
220
-0
230
1
0
CIRCLE
5
330
100
AcDbEntity
8
0
100
AcDbCircle
10
-203.37744880862596
20
-47.153370164184203
30
0
40
0.94999999999999996
210
0
220
-0
230
1
0
CIRCLE
5
331
100
AcDbEntity
8
0
100
AcDbCircle
10
-210.37744880862593
20
-43.753370164184204
30
0
40
0.94999999999999996
210
0
220
-0
230
1
0
CIRCLE
5
332
100
AcDbEntity
8
0
100
AcDbCircle
10
-202.87744880862593
20
-50.953370164184207
30
0
40
1.5249999999999999
210
0
220
-0
230
1
0
CIRCLE
5
333
100
AcDbEntity
8
0
100
AcDbCircle
10
-215.87744880862596
20
-43.753370164184204
30
0
40
2.5249999999999999
210
0
220
-0
230
1
0
CIRCLE
5
334
100
AcDbEntity
8
0
100
AcDbCircle
10
-221.37744880862596
20
-43.753370164184204
30
0
40
0.94999999999999996
210
0
220
-0
230
1
0
CIRCLE
5
335
100
AcDbEntity
8
0
100
AcDbCircle
10
-220.87744880862596
20
-47.553370164184216
30
0
40
1.5249999999999999
210
0
220
-0
230
1
0
CIRCLE
5
336
100
AcDbEntity
8
0
100
AcDbCircle
10
-215.87744880862596
20
-49.653370164184203
30
0
40
1.5249999999999999
210
0
220
-0
230
1
0
CIRCLE
5
337
100
AcDbEntity
8
0
100
AcDbCircle
10
-233.87744880862596
20
-29.253370164184208
30
0
40
1.5249999999999999
210
0
220
-0
230
1
0
CIRCLE
5
338
100
AcDbEntity
8
0
100
AcDbCircle
10
-233.87744880862596
20
-40.353370164184206
30
0
40
2.5249999999999999
210
0
220
-0
230
1
0
CIRCLE
5
339
100
AcDbEntity
8
0
100
AcDbCircle
10
-239.37744880862596
20
-40.353370164184206
30
0
40
0.94999999999999996
210
0
220
-0
230
1
0
CIRCLE
5
340
100
AcDbEntity
8
0
100
AcDbCircle
10
-246.37744880862596
20
-40.353370164184206
30
0
40
0.94999999999999996
210
0
220
-0
230
1
0
CIRCLE
5
341
100
AcDbEntity
8
0
100
AcDbCircle
10
-251.87744880862596
20
-29.253370164184208
30
0
40
1.5249999999999999
210
0
220
-0
230
1
0
CIRCLE
5
342
100
AcDbEntity
8
0
100
AcDbCircle
10
-246.87744880862596
20
-35.203370164184214
30
0
40
0.80000000000000016
210
0
220
-2.4651903288156619e-32
230
1
0
CIRCLE
5
343
100
AcDbEntity
8
0
100
AcDbCircle
10
-251.87744880862596
20
-40.353370164184206
30
0
40
2.5249999999999999
210
0
220
-0
230
1
0
CIRCLE
5
344
100
AcDbEntity
8
0
100
AcDbCircle
10
-257.3774488086259
20
-40.353370164184206
30
0
40
0.94999999999999996
210
0
220
-0
230
1
0
CIRCLE
5
345
100
AcDbEntity
8
0
100
AcDbCircle
10
-233.87744880862596
20
-46.253370164184204
30
0
40
1.5249999999999999
210
0
220
-0
230
1
0
CIRCLE
5
346
100
AcDbEntity
8
0
100
AcDbCircle
10
-238.87744880862596
20
-44.15337016418421
30
0
40
1.5249999999999999
210
0
220
-0
230
1
0
CIRCLE
5
347
100
AcDbEntity
8
0
100
AcDbCircle
10
-251.87744880862596
20
-46.253370164184204
30
0
40
1.5249999999999999
210
0
220
-0
230
1
0
CIRCLE
5
348
100
AcDbEntity
8
0
100
AcDbCircle
10
-256.87744880862596
20
-44.15337016418421
30
0
40
1.5249999999999999
210
0
220
-0
230
1
0
LWPOLYLINE
5
349
100
AcDbEntity
8
0
100
AcDbPolyline
90
4
70
1
43
0.0
10
-136.81994957836966
20
-30.293599586944353
10
-150.81994957836966
20
-30.293599586944353
10
-150.81994957836966
20
-16.29359958694435
10
-136.81994957836966
20
-16.29359958694435
0
LWPOLYLINE
5
350
100
AcDbEntity
8
0
100
AcDbPolyline
90
4
70
1
43
0.0
10
-150.81994957836966
20
0.70640041305565227
10
-136.81994957836966
20
0.70640041305565227
10
-136.81994957836966
20
-13.293599586944351
10
-150.81994957836966
20
-13.293599586944351
0
LWPOLYLINE
5
351
100
AcDbEntity
8
0
100
AcDbPolyline
90
4
70
1
43
0.0
10
-150.81994957836966
20
17.706400413055654
10
-136.81994957836966
20
17.706400413055654
10
-136.81994957836966
20
3.7064004130556505
10
-150.81994957836966
20
3.7064004130556505
0
LWPOLYLINE
5
352
100
AcDbEntity
8
0
100
AcDbPolyline
90
4
70
1
43
0.0
10
-150.81994957836966
20
34.706400413055654
10
-136.81994957836966
20
34.706400413055654
10
-136.81994957836966
20
20.706400413055654
10
-150.81994957836966
20
20.706400413055654
0
LWPOLYLINE
5
353
100
AcDbEntity
8
0
100
AcDbPolyline
90
4
70
1
43
0.0
10
-150.81994957836966
20
51.706400413055661
10
-136.81994957836966
20
51.706400413055661
10
-136.81994957836966
20
37.706400413055654
10
-150.81994957836966
20
37.706400413055654
0
LWPOLYLINE
5
354
100
AcDbEntity
8
0
100
AcDbPolyline
90
4
70
1
43
0.0
10
-150.81994957836966
20
-33.293599586944353
10
-136.81994957836966
20
-33.293599586944353
10
-136.81994957836966
20
-47.293599586944353
10
-150.81994957836966
20
-47.293599586944353
0
LWPOLYLINE
5
355
100
AcDbEntity
8
0
100
AcDbPolyline
90
4
70
1
43
0.0
10
-240.81994957836969
20
34.706400413055654
10
-226.81994957836969
20
34.706400413055654
10
-226.81994957836969
20
20.706400413055654
10
-240.81994957836969
20
20.706400413055654
0
LWPOLYLINE
5
356
100
AcDbEntity
8
0
100
AcDbPolyline
90
4
70
1
43
0.0
10
-240.81994957836969
20
17.706400413055654
10
-226.81994957836969
20
17.706400413055654
10
-226.81994957836969
20
3.7064004130556505
10
-240.81994957836969
20
3.7064004130556505
0
LWPOLYLINE
5
357
100
AcDbEntity
8
0
100
AcDbPolyline
90
4
70
1
43
0.0
10
-240.81994957836969
20
0.70640041305565227
10
-226.81994957836969
20
0.70640041305565227
10
-226.81994957836969
20
-13.293599586944351
10
-240.81994957836969
20
-13.293599586944351
0
LWPOLYLINE
5
358
100
AcDbEntity
8
0
100
AcDbPolyline
90
4
70
1
43
0.0
10
-240.81994957836969
20
-16.29359958694435
10
-226.81994957836969
20
-16.29359958694435
10
-226.81994957836969
20
-30.293599586944353
10
-240.81994957836969
20
-30.293599586944353
0
LWPOLYLINE
5
359
100
AcDbEntity
8
0
100
AcDbPolyline
90
4
70
1
43
0.0
10
-240.81994957836969
20
-33.293599586944353
10
-226.81994957836969
20
-33.293599586944353
10
-226.81994957836969
20
-47.293599586944353
10
-240.81994957836969
20
-47.293599586944353
0
LWPOLYLINE
5
360
100
AcDbEntity
8
0
100
AcDbPolyline
90
4
70
1
43
0.0
10
-258.81994957836974
20
34.706400413055654
10
-244.81994957836972
20
34.706400413055654
10
-244.81994957836972
20
20.706400413055654
10
-258.81994957836974
20
20.706400413055654
0
LWPOLYLINE
5
361
100
AcDbEntity
8
0
100
AcDbPolyline
90
4
70
1
43
0.0
10
-258.81994957836974
20
17.706400413055654
10
-244.81994957836972
20
17.706400413055654
10
-244.81994957836972
20
3.7064004130556505
10
-258.81994957836974
20
3.7064004130556505
0
LWPOLYLINE
5
362
100
AcDbEntity
8
0
100
AcDbPolyline
90
4
70
1
43
0.0
10
-258.81994957836974
20
0.70640041305565227
10
-244.81994957836972
20
0.70640041305565227
10
-244.81994957836972
20
-13.293599586944351
10
-258.81994957836974
20
-13.293599586944351
0
LWPOLYLINE
5
363
100
AcDbEntity
8
0
100
AcDbPolyline
90
4
70
1
43
0.0
10
-258.81994957836974
20
-16.29359958694435
10
-244.81994957836972
20
-16.29359958694435
10
-244.81994957836972
20
-30.293599586944353
10
-258.81994957836974
20
-30.293599586944353
0
LWPOLYLINE
5
364
100
AcDbEntity
8
0
100
AcDbPolyline
90
4
70
1
43
0.0
10
-258.81994957836974
20
-33.293599586944353
10
-244.81994957836972
20
-33.293599586944353
10
-244.81994957836972
20
-47.293599586944353
10
-258.81994957836974
20
-47.293599586944353
0
LWPOLYLINE
5
365
100
AcDbEntity
8
0
100
AcDbPolyline
90
4
70
1
43
0.0
10
-168.81994957836966
20
34.306400413055655
10
-168.81994957836966
20
48.306400413055655
10
-154.81994957836969
20
48.306400413055655
10
-154.81994957836969
20
34.306400413055655
0
LWPOLYLINE
5
366
100
AcDbEntity
8
0
100
AcDbPolyline
90
4
70
1
43
0.0
10
-168.81994957836966
20
31.306400413055655
10
-154.81994957836969
20
31.306400413055655
10
-154.81994957836969
20
17.306400413055655
10
-168.81994957836966
20
17.306400413055655
0
LWPOLYLINE
5
367
100
AcDbEntity
8
0
100
AcDbPolyline
90
4
70
1
43
0.0
10
-168.81994957836966
20
14.306400413055655
10
-154.81994957836969
20
14.306400413055655
10
-154.81994957836969
20
0.30640041305565191
10
-168.81994957836966
20
0.30640041305565191
0
LWPOLYLINE
5
368
100
AcDbEntity
8
0
100
AcDbPolyline
90
4
70
1
43
0.0
10
-168.81994957836966
20
-2.6935995869443463
10
-154.81994957836969
20
-2.6935995869443463
10
-154.81994957836969
20
-16.693599586944352
10
-168.81994957836966
20
-16.693599586944352
0
LWPOLYLINE
5
369
100
AcDbEntity
8
0
100
AcDbPolyline
90
4
70
1
43
0.0
10
-168.81994957836966
20
-19.693599586944348
10
-154.81994957836969
20
-19.693599586944348
10
-154.81994957836969
20
-33.693599586944352
10
-168.81994957836966
20
-33.693599586944352
0
LWPOLYLINE
5
370
100
AcDbEntity
8
0
100
AcDbPolyline
90
4
70
1
43
0.0
10
-168.81994957836966
20
-36.693599586944352
10
-154.81994957836969
20
-36.693599586944352
10
-154.81994957836969
20
-50.693599586944352
10
-168.81994957836966
20
-50.693599586944352
0
LWPOLYLINE
5
371
100
AcDbEntity
8
0
100
AcDbPolyline
90
4
70
1
43
0.0
10
-186.81994957836966
20
34.306400413055655
10
-186.81994957836966
20
48.306400413055655
10
-172.81994957836969
20
48.306400413055655
10
-172.81994957836969
20
34.306400413055655
0
LWPOLYLINE
5
372
100
AcDbEntity
8
0
100
AcDbPolyline
90
4
70
1
43
0.0
10
-186.81994957836966
20
31.306400413055655
10
-172.81994957836969
20
31.306400413055655
10
-172.81994957836969
20
17.306400413055655
10
-186.81994957836966
20
17.306400413055655
0
LWPOLYLINE
5
373
100
AcDbEntity
8
0
100
AcDbPolyline
90
4
70
1
43
0.0
10
-186.81994957836966
20
14.306400413055655
10
-172.81994957836969
20
14.306400413055655
10
-172.81994957836969
20
0.30640041305565191
10
-186.81994957836966
20
0.30640041305565191
0
LWPOLYLINE
5
374
100
AcDbEntity
8
0
100
AcDbPolyline
90
4
70
1
43
0.0
10
-186.81994957836966
20
-2.6935995869443463
10
-172.81994957836969
20
-2.6935995869443463
10
-172.81994957836969
20
-16.693599586944352
10
-186.81994957836966
20
-16.693599586944352
0
LWPOLYLINE
5
375
100
AcDbEntity
8
0
100
AcDbPolyline
90
4
70
1
43
0.0
10
-186.81994957836966
20
-19.693599586944348
10
-172.81994957836969
20
-19.693599586944348
10
-172.81994957836969
20
-33.693599586944352
10
-186.81994957836966
20
-33.693599586944352
0
LWPOLYLINE
5
376
100
AcDbEntity
8
0
100
AcDbPolyline
90
4
70
1
43
0.0
10
-186.81994957836966
20
-36.693599586944352
10
-172.81994957836969
20
-36.693599586944352
10
-172.81994957836969
20
-50.693599586944352
10
-186.81994957836966
20
-50.693599586944352
0
LWPOLYLINE
5
377
100
AcDbEntity
8
0
100
AcDbPolyline
90
4
70
1
43
0.0
10
-204.81994957836969
20
-54.09359958694435
10
-204.81994957836969
20
-40.09359958694435
10
-190.81994957836969
20
-40.09359958694435
10
-190.81994957836969
20
-54.09359958694435
0
LWPOLYLINE
5
378
100
AcDbEntity
8
0
100
AcDbPolyline
90
4
70
1
43
0.0
10
-190.81994957836969
20
-37.09359958694435
10
-204.81994957836969
20
-37.09359958694435
10
-204.81994957836969
20
-23.093599586944347
10
-190.81994957836969
20
-23.093599586944347
0
LWPOLYLINE
5
379
100
AcDbEntity
8
0
100
AcDbPolyline
90
4
70
1
43
0.0
10
-204.81994957836969
20
-20.09359958694435
10
-204.81994957836969
20
-6.0935995869443449
10
-190.81994957836969
20
-6.0935995869443449
10
-190.81994957836969
20
-20.09359958694435
0
LWPOLYLINE
5
380
100
AcDbEntity
8
0
100
AcDbPolyline
90
4
70
1
43
0.0
10
-190.81994957836969
20
-3.0935995869443467
10
-204.81994957836969
20
-3.0935995869443467
10
-204.81994957836969
20
10.906400413055657
10
-190.81994957836969
20
10.906400413055657
0
LWPOLYLINE
5
381
100
AcDbEntity
8
0
100
AcDbPolyline
90
4
70
1
43
0.0
10
-204.81994957836969
20
13.906400413055655
10
-204.81994957836969
20
27.906400413055657
10
-190.81994957836969
20
27.906400413055657
10
-190.81994957836969
20
13.906400413055655
0
LWPOLYLINE
5
382
100
AcDbEntity
8
0
100
AcDbPolyline
90
4
70
1
43
0.0
10
-190.81994957836969
20
30.906400413055657
10
-204.81994957836969
20
30.906400413055657
10
-204.81994957836969
20
44.906400413055664
10
-190.81994957836969
20
44.906400413055664
0
LWPOLYLINE
5
383
100
AcDbEntity
8
0
100
AcDbPolyline
90
4
70
1
43
0.0
10
-222.81994957836969
20
34.306400413055655
10
-222.81994957836969
20
48.306400413055655
10
-208.81994957836969
20
48.306400413055655
10
-208.81994957836969
20
34.306400413055655
0
LWPOLYLINE
5
384
100
AcDbEntity
8
0
100
AcDbPolyline
90
4
70
1
43
0.0
10
-222.81994957836969
20
31.306400413055655
10
-208.81994957836969
20
31.306400413055655
10
-208.81994957836969
20
17.306400413055655
10
-222.81994957836969
20
17.306400413055655
0
LWPOLYLINE
5
385
100
AcDbEntity
8
0
100
AcDbPolyline
90
4
70
1
43
0.0
10
-222.81994957836969
20
14.306400413055655
10
-208.81994957836969
20
14.306400413055655
10
-208.81994957836969
20
0.30640041305565191
10
-222.81994957836969
20
0.30640041305565191
0
LWPOLYLINE
5
386
100
AcDbEntity
8
0
100
AcDbPolyline
90
4
70
1
43
0.0
10
-222.81994957836969
20
-2.6935995869443463
10
-208.81994957836969
20
-2.6935995869443463
10
-208.81994957836969
20
-16.693599586944352
10
-222.81994957836969
20
-16.693599586944352
0
LWPOLYLINE
5
387
100
AcDbEntity
8
0
100
AcDbPolyline
90
4
70
1
43
0.0
10
-222.81994957836969
20
-19.693599586944348
10
-208.81994957836969
20
-19.693599586944348
10
-208.81994957836969
20
-33.693599586944352
10
-222.81994957836969
20
-33.693599586944352
0
LWPOLYLINE
5
388
100
AcDbEntity
8
0
100
AcDbPolyline
90
4
70
1
43
0.0
10
-222.81994957836969
20
-36.693599586944352
10
-208.81994957836969
20
-36.693599586944352
10
-208.81994957836969
20
-50.693599586944352
10
-222.81994957836969
20
-50.693599586944352
0
LWPOLYLINE
5
389
100
AcDbEntity
8
0
100
AcDbPolyline
90
7
70
1
43
0.0
10
-265.79742176732691
20
58.616565508219686
10
-134.99888757635907
20
58.616565508219686
10
-134.99888757635907
20
-50.60901965517872
10
-179.4369804084846
20
-58.223403137817428
10
-207.37745081748358
20
-58.223403137817428
10
-228.96745510565773
20
-51.873303721668364
10
-265.79684295902973
20
-51.873303721668364
0
ENDSEC
0
SECTION
2
OBJECTS
0
DICTIONARY
5
C
100
AcDbDictionary
3
ACAD_GROUP
350
D
3
ACAD_MLINESTYLE
350
17
0
DICTIONARY
5
D
100
AcDbDictionary
0
DICTIONARY
5
1A
330
C
100
AcDbDictionary
0
DICTIONARY
5
17
100
AcDbDictionary
0
ENDSEC
0
EOF
