0
SECTION
2
HEADER
9
$INSUNITS
70
4
9
$ACADVER
1
AC1014
9
$HANDSEED
5
FFFF
0
ENDSEC
0
SECTION
2
TABLES
0
TABLE
2
VPORT
5
8
100
AcDbSymbolTable
0
ENDTAB
0
TABLE
2
LTYPE
5
5
100
AcDbSymbolTable
0
LTYPE
5
14
100
AcDbSymbolTableRecord
100
AcDbLinetypeTableRecord
2
BYBLOCK
70
0
0
LTYPE
5
15
100
AcDbSymbolTableRecord
100
AcDbLinetypeTableRecord
2
BYLAYER
70
0
0
LTYPE
5
16
100
AcDbSymbolTableRecord
100
AcDbLinetypeTableRecord
2
DASHED
70
0
3
Dashed __ __ __ __ __ __ __ __ __ __ __ __ __ _
72
65
73
2
40
0.75
49
0.5
74
0
49
-0.25
74
0
0
ENDTAB
0
TABLE
2
LAYER
5
2
100
AcDbSymbolTable
70
2
0
LAYER
5
50
100
AcDbSymbolTableRecord
100
AcDbLayerTableRecord
2
0
70
0
62
7
6
CONTINUOUS
0
ENDTAB
0
TABLE
2
STYLE
5
3
100
AcDbSymbolTable
70
1
0
STYLE
5
11
100
AcDbSymbolTableRecord
100
AcDbTextStyleTableRecord
2
STANDARD
70
0
0
ENDTAB
0
TABLE
2
VIEW
5
6
100
AcDbSymbolTable
70
0
0
ENDTAB
0
TABLE
2
UCS
5
7
100
AcDbSymbolTable
70
0
0
ENDTAB
0
TABLE
2
APPID
5
9
100
AcDbSymbolTable
70
2
0
APPID
5
12
100
AcDbSymbolTableRecord
100
AcDbRegAppTableRecord
2
ACAD
70
0
0
ENDTAB
0
TABLE
2
DIMSTYLE
5
A
100
AcDbSymbolTable
70
1
0
ENDTAB
0
TABLE
2
BLOCK_RECORD
5
1
100
AcDbSymbolTable
70
1
0
BLOCK_RECORD
5
1F
100
AcDbSymbolTableRecord
100
AcDbBlockTableRecord
2
*MODEL_SPACE
0
BLOCK_RECORD
5
1B
100
AcDbSymbolTableRecord
100
AcDbBlockTableRecord
2
*PAPER_SPACE
0
ENDTAB
0
ENDSEC
0
SECTION
2
BLOCKS
0
BLOCK
5
20
100
AcDbEntity
100
AcDbBlockBegin
2
*MODEL_SPACE
0
ENDBLK
5
21
100
AcDbEntity
100
AcDbBlockEnd
0
BLOCK
5
1C
100
AcDbEntity
100
AcDbBlockBegin
2
*PAPER_SPACE
0
ENDBLK
5
1D
100
AcDbEntity
100
AcDbBlockEnd
0
ENDSEC
0
SECTION
2
ENTITIES
0
CIRCLE
5
100
100
AcDbEntity
8
0
100
AcDbCircle
10
-52.629429182410981
20
-36.503109074931054
30
25.427000083255891
40
0.80000000000000016
210
0
220
0
230
1
0
CIRCLE
5
101
100
AcDbEntity
8
0
100
AcDbCircle
10
-53.129429182410952
20
-31.353109074931048
30
25.427000083255891
40
0.94999999999999996
210
0
220
0
230
1
0
CIRCLE
5
102
100
AcDbEntity
8
0
100
AcDbCircle
10
-47.629429182410981
20
-31.353109074931048
30
25.427000083255891
40
2.5249999999999999
210
0
220
0
230
1
0
CIRCLE
5
103
100
AcDbEntity
8
0
100
AcDbCircle
10
-42.129429182411009
20
-31.353109074931048
30
25.427000083255891
40
0.94999999999999996
210
0
220
0
230
1
0
CIRCLE
5
104
100
AcDbEntity
8
0
100
AcDbCircle
10
-34.629429182410973
20
-36.503109074931068
30
25.427000083256388
40
0.80000000000000016
210
0
220
0
230
1
0
CIRCLE
5
105
100
AcDbEntity
8
0
100
AcDbCircle
10
-16.629429182410984
20
-49.203109074931049
30
25.427000083256335
40
0.80000000000000016
210
0
220
0
230
1
0
CIRCLE
5
106
100
AcDbEntity
8
0
100
AcDbCircle
10
-17.129429182410956
20
-44.053109074931044
30
25.427000083256335
40
0.94999999999999996
210
0
220
0
230
1
0
CIRCLE
5
107
100
AcDbEntity
8
0
100
AcDbCircle
10
-11.629429182410984
20
-44.053109074931044
30
25.427000083256335
40
2.5249999999999999
210
0
220
0
230
1
0
CIRCLE
5
108
100
AcDbEntity
8
0
100
AcDbCircle
10
-6.1294291824108704
20
-44.053109074931044
30
25.427000083256335
40
0.94999999999999996
210
0
220
0
230
1
0
CIRCLE
5
109
100
AcDbEntity
8
0
100
AcDbCircle
10
1.370570817589023
20
-45.803109074931015
30
25.427000083255784
40
0.80000000000000016
210
0
220
0
230
1
0
CIRCLE
5
110
100
AcDbEntity
8
0
100
AcDbCircle
10
-11.629429182410984
20
-38.153109074931074
30
25.427000083256335
40
1.5249999999999999
210
0
220
0
230
1
0
CIRCLE
5
111
100
AcDbEntity
8
0
100
AcDbCircle
10
-16.629429182410984
20
-32.203109074931071
30
25.427000083256335
40
0.80000000000000016
210
0
220
0
230
1
0
CIRCLE
5
112
100
AcDbEntity
8
0
100
AcDbCircle
10
-6.6294291824108775
20
-40.253109074931075
30
25.427000083256335
40
1.5249999999999999
210
0
220
0
230
1
0
CIRCLE
5
113
100
AcDbEntity
8
0
100
AcDbCircle
10
0.87057081758901589
20
-40.653109074931031
30
25.427000083255784
40
0.94999999999999996
210
0
220
0
230
1
0
CIRCLE
5
114
100
AcDbEntity
8
0
100
AcDbCircle
10
6.370570817589023
20
-40.653109074931031
30
25.427000083255784
40
2.5249999999999999
210
0
220
0
230
1
0
CIRCLE
5
115
100
AcDbEntity
8
0
100
AcDbCircle
10
6.370570817589023
20
-34.753109074931047
30
25.427000083255784
40
1.5249999999999999
210
0
220
0
230
1
0
CIRCLE
5
116
100
AcDbEntity
8
0
100
AcDbCircle
10
1.370570817589023
20
-28.803109074931022
30
25.427000083255784
40
0.80000000000000016
210
0
220
0
230
1
0
CIRCLE
5
117
100
AcDbEntity
8
0
100
AcDbCircle
10
-47.629429182410981
20
-25.453109074931049
30
25.427000083255891
40
1.5249999999999999
210
0
220
0
230
1
0
CIRCLE
5
118
100
AcDbEntity
8
0
100
AcDbCircle
10
-42.629429182410981
20
-27.553109074931058
30
25.427000083255891
40
1.5249999999999999
210
0
220
0
230
1
0
CIRCLE
5
119
100
AcDbEntity
8
0
100
AcDbCircle
10
-52.629429182410981
20
-19.503109074931061
30
25.427000083255891
40
0.80000000000000016
210
0
220
0
230
1
0
CIRCLE
5
120
100
AcDbEntity
8
0
100
AcDbCircle
10
-35.129429182410981
20
-31.353109074931066
30
25.427000083256388
40
0.94999999999999996
210
0
220
0
230
1
0
CIRCLE
5
121
100
AcDbEntity
8
0
100
AcDbCircle
10
-29.629429182410973
20
-31.353109074931066
30
25.427000083256388
40
2.5249999999999999
210
0
220
0
230
1
0
CIRCLE
5
122
100
AcDbEntity
8
0
100
AcDbCircle
10
-24.129429182411002
20
-31.353109074931066
30
25.427000083256388
40
0.94999999999999996
210
0
220
0
230
1
0
CIRCLE
5
123
100
AcDbEntity
8
0
100
AcDbCircle
10
-24.629429182410973
20
-27.55310907493104
30
25.427000083256388
40
1.5249999999999999
210
0
220
0
230
1
0
CIRCLE
5
124
100
AcDbEntity
8
0
100
AcDbCircle
10
-29.629429182410973
20
-25.453109074931067
30
25.427000083256388
40
1.5249999999999999
210
0
220
0
230
1
0
CIRCLE
5
125
100
AcDbEntity
8
0
100
AcDbCircle
10
-53.129429182410952
20
-14.353109074931055
30
25.427000083255891
40
0.94999999999999996
210
0
220
0
230
1
0
CIRCLE
5
126
100
AcDbEntity
8
0
100
AcDbCircle
10
-47.629429182410981
20
-14.353109074931055
30
25.427000083255891
40
2.5249999999999999
210
0
220
0
230
1
0
CIRCLE
5
127
100
AcDbEntity
8
0
100
AcDbCircle
10
-42.129429182411009
20
-14.353109074931037
30
25.427000083255891
40
0.94999999999999996
210
0
220
0
230
1
0
CIRCLE
5
128
100
AcDbEntity
8
0
100
AcDbCircle
10
-42.629429182410981
20
-10.553109074931047
30
25.427000083255891
40
1.5249999999999999
210
0
220
0
230
1
0
CIRCLE
5
129
100
AcDbEntity
8
0
100
AcDbCircle
10
-47.629429182410981
20
-8.4531090749310387
30
25.427000083255891
40
1.5249999999999999
210
0
220
0
230
1
0
CIRCLE
5
130
100
AcDbEntity
8
0
100
AcDbCircle
10
-34.629429182411009
20
-19.503109074931061
30
25.427000083256388
40
0.80000000000000016
210
0
220
0
230
1
0
CIRCLE
5
131
100
AcDbEntity
8
0
100
AcDbCircle
10
-35.129429182410981
20
-14.353109074931037
30
25.427000083256388
40
0.94999999999999996
210
0
220
0
230
1
0
CIRCLE
5
132
100
AcDbEntity
8
0
100
AcDbCircle
10
-29.629429182410973
20
-14.353109074931037
30
25.427000083256388
40
2.5249999999999999
210
0
220
0
230
1
0
CIRCLE
5
133
100
AcDbEntity
8
0
100
AcDbCircle
10
-24.129429182411002
20
-14.353109074931037
30
25.427000083256388
40
0.94999999999999996
210
0
220
0
230
1
0
CIRCLE
5
134
100
AcDbEntity
8
0
100
AcDbCircle
10
-24.629429182410973
20
-10.553109074931047
30
25.427000083256388
40
1.5249999999999999
210
0
220
0
230
1
0
CIRCLE
5
135
100
AcDbEntity
8
0
100
AcDbCircle
10
-29.629429182410973
20
-8.4531090749310547
30
25.427000083256388
40
1.5249999999999999
210
0
220
0
230
1
0
CIRCLE
5
136
100
AcDbEntity
8
0
100
AcDbCircle
10
-17.129429182410956
20
-27.053109074931051
30
25.427000083256335
40
0.94999999999999996
210
0
220
0
230
1
0
CIRCLE
5
137
100
AcDbEntity
8
0
100
AcDbCircle
10
-11.629429182410984
20
-27.053109074931051
30
25.427000083256335
40
2.5249999999999999
210
0
220
0
230
1
0
CIRCLE
5
138
100
AcDbEntity
8
0
100
AcDbCircle
10
-11.629429182410984
20
-21.153109074931052
30
25.427000083256335
40
1.5249999999999999
210
0
220
0
230
1
0
CIRCLE
5
139
100
AcDbEntity
8
0
100
AcDbCircle
10
-6.1294291824108704
20
-27.053109074931051
30
25.427000083256335
40
0.94999999999999996
210
0
220
0
230
1
0
CIRCLE
5
140
100
AcDbEntity
8
0
100
AcDbCircle
10
-6.6294291824108775
20
-23.253109074931043
30
25.427000083256335
40
1.5249999999999999
210
0
220
0
230
1
0
CIRCLE
5
141
100
AcDbEntity
8
0
100
AcDbCircle
10
0.87057081758901589
20
-23.653109074931034
30
25.427000083255784
40
0.94999999999999996
210
0
220
0
230
1
0
CIRCLE
5
142
100
AcDbEntity
8
0
100
AcDbCircle
10
6.370570817589023
20
-23.653109074931034
30
25.427000083255784
40
2.5249999999999999
210
0
220
0
230
1
0
CIRCLE
5
143
100
AcDbEntity
8
0
100
AcDbCircle
10
6.370570817589023
20
-17.753109074931036
30
25.427000083255784
40
1.5249999999999999
210
0
220
0
230
1
0
CIRCLE
5
144
100
AcDbEntity
8
0
100
AcDbCircle
10
-16.629429182410984
20
-15.203109074931046
30
25.427000083256335
40
0.80000000000000016
210
0
220
0
230
1
0
CIRCLE
5
145
100
AcDbEntity
8
0
100
AcDbCircle
10
-17.129429182410956
20
-10.05310907493104
30
25.427000083256335
40
0.94999999999999996
210
0
220
0
230
1
0
CIRCLE
5
146
100
AcDbEntity
8
0
100
AcDbCircle
10
-11.629429182410984
20
-10.05310907493104
30
25.427000083256335
40
2.5249999999999999
210
0
220
0
230
1
0
CIRCLE
5
147
100
AcDbEntity
8
0
100
AcDbCircle
10
-11.629429182410984
20
-4.1531090749310575
30
25.427000083256335
40
1.5249999999999999
210
0
220
0
230
1
0
CIRCLE
5
148
100
AcDbEntity
8
0
100
AcDbCircle
10
-6.1294291824108704
20
-10.05310907493104
30
25.427000083256335
40
0.94999999999999996
210
0
220
0
230
1
0
CIRCLE
5
149
100
AcDbEntity
8
0
100
AcDbCircle
10
1.370570817589023
20
-11.803109074931029
30
25.427000083255784
40
0.80000000000000016
210
0
220
0
230
1
0
CIRCLE
5
150
100
AcDbEntity
8
0
100
AcDbCircle
10
-6.6294291824108775
20
-6.2531090749310483
30
25.427000083256335
40
1.5249999999999999
210
0
220
0
230
1
0
CIRCLE
5
151
100
AcDbEntity
8
0
100
AcDbCircle
10
0.87057081758901589
20
-6.6531090749310406
30
25.427000083255784
40
0.94999999999999996
210
0
220
0
230
1
0
CIRCLE
5
152
100
AcDbEntity
8
0
100
AcDbCircle
10
6.370570817589023
20
-6.6531090749310406
30
25.427000083255784
40
2.5249999999999999
210
0
220
0
230
1
0
CIRCLE
5
153
100
AcDbEntity
8
0
100
AcDbCircle
10
19.37057081758903
20
-49.203109074931028
30
25.427000083257081
40
0.80000000000000016
210
0
220
0
230
1
0
CIRCLE
5
154
100
AcDbEntity
8
0
100
AcDbCircle
10
18.870570817589023
20
-44.053109074931022
30
25.427000083257081
40
0.94999999999999996
210
0
220
0
230
1
0
CIRCLE
5
155
100
AcDbEntity
8
0
100
AcDbCircle
10
24.37057081758903
20
-44.053109074931022
30
25.427000083257081
40
2.5249999999999999
210
0
220
0
230
1
0
CIRCLE
5
156
100
AcDbEntity
8
0
100
AcDbCircle
10
29.870570817589002
20
-44.053109074931022
30
25.427000083257081
40
0.94999999999999996
210
0
220
0
230
1
0
CIRCLE
5
157
100
AcDbEntity
8
0
100
AcDbCircle
10
11.87057081758903
20
-40.653109074931031
30
25.427000083255784
40
0.94999999999999996
210
0
220
0
230
1
0
CIRCLE
5
158
100
AcDbEntity
8
0
100
AcDbCircle
10
11.370570817589023
20
-36.853109074931055
30
25.427000083255784
40
1.5249999999999999
210
0
220
0
230
1
0
CIRCLE
5
159
100
AcDbEntity
8
0
100
AcDbCircle
10
19.37057081758903
20
-32.203109074931028
30
25.427000083257081
40
0.80000000000000016
210
0
220
0
230
1
0
CIRCLE
5
160
100
AcDbEntity
8
0
100
AcDbCircle
10
29.37057081758903
20
-40.253109074931047
30
25.427000083257081
40
1.5249999999999999
210
0
220
0
230
1
0
CIRCLE
5
161
100
AcDbEntity
8
0
100
AcDbCircle
10
24.37057081758903
20
-38.153109074931038
30
25.427000083257081
40
1.5249999999999999
210
0
220
0
230
1
0
CIRCLE
5
162
100
AcDbEntity
8
0
100
AcDbCircle
10
37.370570817589019
20
-33.103109074931034
30
25.427000083256086
40
0.80000000000000016
210
0
220
0
230
1
0
CIRCLE
5
163
100
AcDbEntity
8
0
100
AcDbCircle
10
36.870570817589048
20
-27.953109074931014
30
25.427000083256086
40
0.94999999999999996
210
0
220
0
230
1
0
CIRCLE
5
164
100
AcDbEntity
8
0
100
AcDbCircle
10
42.370570817589019
20
-27.953109074931014
30
25.427000083256086
40
2.5249999999999999
210
0
220
0
230
1
0
CIRCLE
5
165
100
AcDbEntity
8
0
100
AcDbCircle
10
47.870570817589027
20
-27.953109074931014
30
25.427000083256086
40
0.94999999999999996
210
0
220
0
230
1
0
CIRCLE
5
166
100
AcDbEntity
8
0
100
AcDbCircle
10
11.87057081758903
20
-23.653109074931034
30
25.427000083255784
40
0.94999999999999996
210
0
220
0
230
1
0
CIRCLE
5
167
100
AcDbEntity
8
0
100
AcDbCircle
10
18.870570817589023
20
-27.053109074931022
30
25.427000083257081
40
0.94999999999999996
210
0
220
0
230
1
0
CIRCLE
5
168
100
AcDbEntity
8
0
100
AcDbCircle
10
11.370570817589023
20
-19.853109074931044
30
25.427000083255784
40
1.5249999999999999
210
0
220
0
230
1
0
CIRCLE
5
169
100
AcDbEntity
8
0
100
AcDbCircle
10
24.37057081758903
20
-27.053109074931022
30
25.427000083257081
40
2.5249999999999999
210
0
220
0
230
1
0
CIRCLE
5
170
100
AcDbEntity
8
0
100
AcDbCircle
10
29.870570817589002
20
-27.053109074931022
30
25.427000083257081
40
0.94999999999999996
210
0
220
0
230
1
0
CIRCLE
5
171
100
AcDbEntity
8
0
100
AcDbCircle
10
29.37057081758903
20
-23.253109074931015
30
25.427000083257081
40
1.5249999999999999
210
0
220
0
230
1
0
CIRCLE
5
172
100
AcDbEntity
8
0
100
AcDbCircle
10
24.37057081758903
20
-21.153109074931024
30
25.427000083257081
40
1.5249999999999999
210
0
220
0
230
1
0
CIRCLE
5
173
100
AcDbEntity
8
0
100
AcDbCircle
10
37.370570817589019
20
-16.103109074931027
30
25.427000083256086
40
0.80000000000000016
210
0
220
0
230
1
0
CIRCLE
5
174
100
AcDbEntity
8
0
100
AcDbCircle
10
19.37057081758903
20
-15.203109074931017
30
25.427000083257081
40
0.80000000000000016
210
0
220
0
230
1
0
CIRCLE
5
175
100
AcDbEntity
8
0
100
AcDbCircle
10
18.870570817589023
20
-10.053109074931012
30
25.427000083257081
40
0.94999999999999996
210
0
220
0
230
1
0
CIRCLE
5
176
100
AcDbEntity
8
0
100
AcDbCircle
10
11.87057081758903
20
-6.6531090749310406
30
25.427000083255784
40
0.94999999999999996
210
0
220
0
230
1
0
CIRCLE
5
177
100
AcDbEntity
8
0
100
AcDbCircle
10
11.370570817589023
20
-2.8531090749310328
30
25.427000083255784
40
1.5249999999999999
210
0
220
0
230
1
0
CIRCLE
5
178
100
AcDbEntity
8
0
100
AcDbCircle
10
24.37057081758903
20
-10.053109074931012
30
25.427000083257081
40
2.5249999999999999
210
0
220
0
230
1
0
CIRCLE
5
179
100
AcDbEntity
8
0
100
AcDbCircle
10
29.870570817589002
20
-10.053109074931012
30
25.427000083257081
40
0.94999999999999996
210
0
220
0
230
1
0
CIRCLE
5
180
100
AcDbEntity
8
0
100
AcDbCircle
10
36.870570817589048
20
-10.953109074931021
30
25.427000083256086
40
0.94999999999999996
210
0
220
0
230
1
0
CIRCLE
5
181
100
AcDbEntity
8
0
100
AcDbCircle
10
29.37057081758903
20
-6.2531090749310225
30
25.427000083257081
40
1.5249999999999999
210
0
220
0
230
1
0
CIRCLE
5
182
100
AcDbEntity
8
0
100
AcDbCircle
10
24.37057081758903
20
-4.1531090749310318
30
25.427000083257081
40
1.5249999999999999
210
0
220
0
230
1
0
CIRCLE
5
183
100
AcDbEntity
8
0
100
AcDbCircle
10
42.370570817589019
20
-22.053109074931015
30
25.427000083256086
40
1.5249999999999999
210
0
220
0
230
1
0
CIRCLE
5
184
100
AcDbEntity
8
0
100
AcDbCircle
10
47.370570817589019
20
-24.153109074931024
30
25.427000083256086
40
1.5249999999999999
210
0
220
0
230
1
0
CIRCLE
5
185
100
AcDbEntity
8
0
100
AcDbCircle
10
42.370570817589019
20
-10.953109074931021
30
25.427000083256086
40
2.5249999999999999
210
0
220
0
230
1
0
CIRCLE
5
186
100
AcDbEntity
8
0
100
AcDbCircle
10
47.870570817589027
20
-10.953109074931021
30
25.427000083256086
40
0.94999999999999996
210
0
220
0
230
1
0
CIRCLE
5
187
100
AcDbEntity
8
0
100
AcDbCircle
10
47.370570817589019
20
-7.1531090749310122
30
25.427000083256086
40
1.5249999999999999
210
0
220
0
230
1
0
CIRCLE
5
188
100
AcDbEntity
8
0
100
AcDbCircle
10
42.370570817589019
20
-5.0531090749310037
30
25.427000083256086
40
1.5249999999999999
210
0
220
0
230
1
0
CIRCLE
5
189
100
AcDbEntity
8
0
100
AcDbCircle
10
-52.629429182410981
20
-2.5031090749310492
30
25.427000083255891
40
0.80000000000000016
210
0
220
0
230
1
0
CIRCLE
5
190
100
AcDbEntity
8
0
100
AcDbCircle
10
-53.129429182410952
20
2.6468909250689565
30
25.427000083255891
40
0.94999999999999996
210
0
220
0
230
1
0
CIRCLE
5
191
100
AcDbEntity
8
0
100
AcDbCircle
10
-47.629429182410981
20
2.6468909250689743
30
25.427000083255891
40
2.5249999999999999
210
0
220
0
230
1
0
CIRCLE
5
192
100
AcDbEntity
8
0
100
AcDbCircle
10
-42.129429182411009
20
2.6468909250689743
30
25.427000083255891
40
0.94999999999999996
210
0
220
0
230
1
0
CIRCLE
5
193
100
AcDbEntity
8
0
100
AcDbCircle
10
-47.629429182410981
20
8.546890925068972
30
25.427000083255891
40
1.5249999999999999
210
0
220
0
230
1
0
CIRCLE
5
194
100
AcDbEntity
8
0
100
AcDbCircle
10
-42.629429182410981
20
6.4468909250689643
30
25.427000083255891
40
1.5249999999999999
210
0
220
0
230
1
0
CIRCLE
5
195
100
AcDbEntity
8
0
100
AcDbCircle
10
-34.629429182411009
20
-2.5031090749310483
30
25.427000083256388
40
0.80000000000000016
210
0
220
0
230
1
0
CIRCLE
5
196
100
AcDbEntity
8
0
100
AcDbCircle
10
-35.129429182410981
20
2.6468909250689574
30
25.427000083256388
40
0.94999999999999996
210
0
220
0
230
1
0
CIRCLE
5
197
100
AcDbEntity
8
0
100
AcDbCircle
10
-29.629429182410973
20
2.6468909250689574
30
25.427000083256388
40
2.5249999999999999
210
0
220
0
230
1
0
CIRCLE
5
198
100
AcDbEntity
8
0
100
AcDbCircle
10
-24.129429182411002
20
2.6468909250689574
30
25.427000083256388
40
0.94999999999999996
210
0
220
0
230
1
0
CIRCLE
5
199
100
AcDbEntity
8
0
100
AcDbCircle
10
-24.629429182410973
20
6.4468909250689475
30
25.427000083256388
40
1.5249999999999999
210
0
220
0
230
1
0
CIRCLE
5
200
100
AcDbEntity
8
0
100
AcDbCircle
10
-52.629429182410981
20
14.496890925068961
30
25.427000083255891
40
0.80000000000000016
210
0
220
0
230
1
0
CIRCLE
5
201
100
AcDbEntity
8
0
100
AcDbCircle
10
-53.129429182410952
20
19.646890925068966
30
25.427000083255891
40
0.94999999999999996
210
0
220
0
230
1
0
CIRCLE
5
202
100
AcDbEntity
8
0
100
AcDbCircle
10
-47.629429182410981
20
19.646890925068966
30
25.427000083255891
40
2.5249999999999999
210
0
220
0
230
1
0
CIRCLE
5
203
100
AcDbEntity
8
0
100
AcDbCircle
10
-42.129429182411009
20
19.646890925068966
30
25.427000083255891
40
0.94999999999999996
210
0
220
0
230
1
0
CIRCLE
5
204
100
AcDbEntity
8
0
100
AcDbCircle
10
-42.629429182410981
20
23.446890925068956
30
25.427000083255891
40
1.5249999999999999
210
0
220
0
230
1
0
CIRCLE
5
205
100
AcDbEntity
8
0
100
AcDbCircle
10
-29.629429182410973
20
8.546890925068956
30
25.427000083256388
40
1.5249999999999999
210
0
220
0
230
1
0
CIRCLE
5
206
100
AcDbEntity
8
0
100
AcDbCircle
10
-34.629429182411009
20
14.496890925068943
30
25.427000083256388
40
0.80000000000000016
210
0
220
0
230
1
0
CIRCLE
5
207
100
AcDbEntity
8
0
100
AcDbCircle
10
-35.129429182410981
20
19.646890925068949
30
25.427000083256388
40
0.94999999999999996
210
0
220
0
230
1
0
CIRCLE
5
208
100
AcDbEntity
8
0
100
AcDbCircle
10
-29.629429182410973
20
19.646890925068949
30
25.427000083256388
40
2.5249999999999999
210
0
220
0
230
1
0
CIRCLE
5
209
100
AcDbEntity
8
0
100
AcDbCircle
10
-24.129429182411002
20
19.646890925068949
30
25.427000083256388
40
0.94999999999999996
210
0
220
0
230
1
0
CIRCLE
5
210
100
AcDbEntity
8
0
100
AcDbCircle
10
-16.629429182410984
20
1.7968909250689491
30
25.427000083256335
40
0.80000000000000016
210
0
220
0
230
1
0
CIRCLE
5
211
100
AcDbEntity
8
0
100
AcDbCircle
10
-17.129429182410956
20
6.9468909250689546
30
25.427000083256335
40
0.94999999999999996
210
0
220
0
230
1
0
CIRCLE
5
212
100
AcDbEntity
8
0
100
AcDbCircle
10
-11.629429182410984
20
6.9468909250689546
30
25.427000083256335
40
2.5249999999999999
210
0
220
0
230
1
0
CIRCLE
5
213
100
AcDbEntity
8
0
100
AcDbCircle
10
6.370570817589023
20
-0.7531090749310243
30
25.427000083255784
40
1.5249999999999999
210
0
220
0
230
1
0
CIRCLE
5
214
100
AcDbEntity
8
0
100
AcDbCircle
10
-6.1294291824108704
20
6.9468909250689546
30
25.427000083256335
40
0.94999999999999996
210
0
220
0
230
1
0
CIRCLE
5
215
100
AcDbEntity
8
0
100
AcDbCircle
10
-6.6294291824108775
20
10.746890925068943
30
25.427000083256335
40
1.5249999999999999
210
0
220
0
230
1
0
CIRCLE
5
216
100
AcDbEntity
8
0
100
AcDbCircle
10
1.370570817589023
20
5.1968909250689821
30
25.427000083255784
40
0.80000000000000016
210
0
220
0
230
1
0
CIRCLE
5
217
100
AcDbEntity
8
0
100
AcDbCircle
10
0.87057081758901589
20
10.346890925068969
30
25.427000083255784
40
0.94999999999999996
210
0
220
0
230
1
0
CIRCLE
5
218
100
AcDbEntity
8
0
100
AcDbCircle
10
6.370570817589023
20
10.346890925068969
30
25.427000083255784
40
2.5249999999999999
210
0
220
0
230
1
0
CIRCLE
5
219
100
AcDbEntity
8
0
100
AcDbCircle
10
-11.629429182410984
20
12.846890925068951
30
25.427000083256335
40
1.5249999999999999
210
0
220
0
230
1
0
CIRCLE
5
220
100
AcDbEntity
8
0
100
AcDbCircle
10
-16.629429182410984
20
18.79689092506894
30
25.427000083256335
40
0.80000000000000016
210
0
220
0
230
1
0
CIRCLE
5
221
100
AcDbEntity
8
0
100
AcDbCircle
10
-17.129429182410956
20
23.946890925068946
30
25.427000083256335
40
0.94999999999999996
210
0
220
0
230
1
0
CIRCLE
5
222
100
AcDbEntity
8
0
100
AcDbCircle
10
-11.629429182410984
20
23.946890925068946
30
25.427000083256335
40
2.5249999999999999
210
0
220
0
230
1
0
CIRCLE
5
223
100
AcDbEntity
8
0
100
AcDbCircle
10
6.370570817589023
20
16.246890925068968
30
25.427000083255784
40
1.5249999999999999
210
0
220
0
230
1
0
CIRCLE
5
224
100
AcDbEntity
8
0
100
AcDbCircle
10
-6.1294291824108704
20
23.946890925068946
30
25.427000083256335
40
0.94999999999999996
210
0
220
0
230
1
0
CIRCLE
5
225
100
AcDbEntity
8
0
100
AcDbCircle
10
1.370570817589023
20
22.196890925068956
30
25.427000083255784
40
0.80000000000000016
210
0
220
0
230
1
0
CIRCLE
5
226
100
AcDbEntity
8
0
100
AcDbCircle
10
-47.629429182410981
20
25.546890925068965
30
25.427000083255891
40
1.5249999999999999
210
0
220
0
230
1
0
CIRCLE
5
227
100
AcDbEntity
8
0
100
AcDbCircle
10
-52.629429182410981
20
31.496890925068971
30
25.427000083255891
40
0.80000000000000016
210
0
220
0
230
1
0
CIRCLE
5
228
100
AcDbEntity
8
0
100
AcDbCircle
10
-53.129429182410952
20
36.646890925068959
30
25.427000083255891
40
0.94999999999999996
210
0
220
0
230
1
0
CIRCLE
5
229
100
AcDbEntity
8
0
100
AcDbCircle
10
-47.629429182410981
20
36.646890925068959
30
25.427000083255891
40
2.5249999999999999
210
0
220
0
230
1
0
CIRCLE
5
230
100
AcDbEntity
8
0
100
AcDbCircle
10
-42.129429182411009
20
36.646890925068959
30
25.427000083255891
40
0.94999999999999996
210
0
220
0
230
1
0
CIRCLE
5
231
100
AcDbEntity
8
0
100
AcDbCircle
10
-24.629429182410973
20
23.446890925068939
30
25.427000083256388
40
1.5249999999999999
210
0
220
0
230
1
0
CIRCLE
5
232
100
AcDbEntity
8
0
100
AcDbCircle
10
-29.629429182410973
20
25.546890925068947
30
25.427000083256388
40
1.5249999999999999
210
0
220
0
230
1
0
CIRCLE
5
233
100
AcDbEntity
8
0
100
AcDbCircle
10
-34.629429182411009
20
31.496890925068953
30
25.427000083256388
40
0.80000000000000016
210
0
220
0
230
1
0
CIRCLE
5
234
100
AcDbEntity
8
0
100
AcDbCircle
10
-47.629429182410981
20
42.546890925068936
30
25.427000083255891
40
1.5249999999999999
210
0
220
0
230
1
0
CIRCLE
5
235
100
AcDbEntity
8
0
100
AcDbCircle
10
-42.629429182410981
20
40.446890925068942
30
25.427000083255891
40
1.5249999999999999
210
0
220
0
230
1
0
CIRCLE
5
236
100
AcDbEntity
8
0
100
AcDbCircle
10
-35.129429182410981
20
36.646890925068938
30
25.427000083256388
40
0.94999999999999996
210
0
220
0
230
1
0
CIRCLE
5
237
100
AcDbEntity
8
0
100
AcDbCircle
10
-29.629429182410973
20
36.646890925068938
30
25.427000083256388
40
2.5249999999999999
210
0
220
0
230
1
0
CIRCLE
5
238
100
AcDbEntity
8
0
100
AcDbCircle
10
-24.129429182411002
20
36.646890925068938
30
25.427000083256388
40
0.94999999999999996
210
0
220
0
230
1
0
CIRCLE
5
239
100
AcDbEntity
8
0
100
AcDbCircle
10
-24.629429182410973
20
40.446890925068942
30
25.427000083256388
40
1.5249999999999999
210
0
220
0
230
1
0
CIRCLE
5
240
100
AcDbEntity
8
0
100
AcDbCircle
10
-29.629429182410973
20
42.546890925068951
30
25.427000083256388
40
1.5249999999999999
210
0
220
0
230
1
0
CIRCLE
5
241
100
AcDbEntity
8
0
100
AcDbCircle
10
-11.629429182410984
20
29.846890925068944
30
25.427000083256335
40
1.5249999999999999
210
0
220
0
230
1
0
CIRCLE
5
242
100
AcDbEntity
8
0
100
AcDbCircle
10
-16.629429182410984
20
35.796890925068951
30
25.427000083256335
40
0.80000000000000016
210
0
220
0
230
1
0
CIRCLE
5
243
100
AcDbEntity
8
0
100
AcDbCircle
10
-6.6294291824108775
20
27.746890925068953
30
25.427000083256335
40
1.5249999999999999
210
0
220
0
230
1
0
CIRCLE
5
244
100
AcDbEntity
8
0
100
AcDbCircle
10
0.87057081758901589
20
27.346890925068962
30
25.427000083255784
40
0.94999999999999996
210
0
220
0
230
1
0
CIRCLE
5
245
100
AcDbEntity
8
0
100
AcDbCircle
10
6.370570817589023
20
27.346890925068962
30
25.427000083255784
40
2.5249999999999999
210
0
220
0
230
1
0
CIRCLE
5
246
100
AcDbEntity
8
0
100
AcDbCircle
10
6.370570817589023
20
33.246890925068961
30
25.427000083255784
40
1.5249999999999999
210
0
220
0
230
1
0
CIRCLE
5
247
100
AcDbEntity
8
0
100
AcDbCircle
10
-17.129429182410956
20
40.946890925068935
30
25.427000083256335
40
0.94999999999999996
210
0
220
0
230
1
0
CIRCLE
5
248
100
AcDbEntity
8
0
100
AcDbCircle
10
-11.629429182410984
20
40.946890925068935
30
25.427000083256335
40
2.5249999999999999
210
0
220
0
230
1
0
CIRCLE
5
249
100
AcDbEntity
8
0
100
AcDbCircle
10
-11.629429182410984
20
46.846890925068948
30
25.427000083256335
40
1.5249999999999999
210
0
220
0
230
1
0
CIRCLE
5
250
100
AcDbEntity
8
0
100
AcDbCircle
10
-6.1294291824108704
20
40.946890925068935
30
25.427000083256335
40
0.94999999999999996
210
0
220
0
230
1
0
CIRCLE
5
251
100
AcDbEntity
8
0
100
AcDbCircle
10
-6.6294291824108775
20
44.746890925068939
30
25.427000083256335
40
1.5249999999999999
210
0
220
0
230
1
0
CIRCLE
5
252
100
AcDbEntity
8
0
100
AcDbCircle
10
1.370570817589023
20
39.196890925068985
30
25.427000083255784
40
0.80000000000000016
210
0
220
0
230
1
0
CIRCLE
5
253
100
AcDbEntity
8
0
100
AcDbCircle
10
0.87057081758901589
20
44.346890925068969
30
25.427000083255784
40
0.94999999999999996
210
0
220
0
230
1
0
CIRCLE
5
254
100
AcDbEntity
8
0
100
AcDbCircle
10
6.370570817589023
20
44.346890925068969
30
25.427000083255784
40
2.5249999999999999
210
0
220
0
230
1
0
CIRCLE
5
255
100
AcDbEntity
8
0
100
AcDbCircle
10
6.370570817589023
20
50.246890925068932
30
25.427000083255784
40
1.5249999999999999
210
0
220
0
230
1
0
CIRCLE
5
256
100
AcDbEntity
8
0
100
AcDbCircle
10
19.37057081758903
20
1.7968909250689746
30
25.427000083257081
40
0.80000000000000016
210
0
220
0
230
1
0
CIRCLE
5
257
100
AcDbEntity
8
0
100
AcDbCircle
10
11.87057081758903
20
10.346890925068969
30
25.427000083255784
40
0.94999999999999996
210
0
220
0
230
1
0
CIRCLE
5
258
100
AcDbEntity
8
0
100
AcDbCircle
10
18.870570817589023
20
6.9468909250689803
30
25.427000083257081
40
0.94999999999999996
210
0
220
0
230
1
0
CIRCLE
5
259
100
AcDbEntity
8
0
100
AcDbCircle
10
37.370570817589019
20
0.89689092506898493
30
25.427000083256086
40
0.80000000000000016
210
0
220
0
230
1
0
CIRCLE
5
260
100
AcDbEntity
8
0
100
AcDbCircle
10
36.870570817589048
20
6.0468909250689906
30
25.427000083256086
40
0.94999999999999996
210
0
220
0
230
1
0
CIRCLE
5
261
100
AcDbEntity
8
0
100
AcDbCircle
10
24.37057081758903
20
6.9468909250689803
30
25.427000083257081
40
2.5249999999999999
210
0
220
0
230
1
0
CIRCLE
5
262
100
AcDbEntity
8
0
100
AcDbCircle
10
29.870570817589002
20
6.9468909250689803
30
25.427000083257081
40
0.94999999999999996
210
0
220
0
230
1
0
CIRCLE
5
263
100
AcDbEntity
8
0
100
AcDbCircle
10
29.37057081758903
20
10.746890925068971
30
25.427000083257081
40
1.5249999999999999
210
0
220
0
230
1
0
CIRCLE
5
264
100
AcDbEntity
8
0
100
AcDbCircle
10
11.370570817589023
20
14.146890925068959
30
25.427000083255784
40
1.5249999999999999
210
0
220
0
230
1
0
CIRCLE
5
265
100
AcDbEntity
8
0
100
AcDbCircle
10
19.37057081758903
20
18.796890925068968
30
25.427000083257081
40
0.80000000000000016
210
0
220
0
230
1
0
CIRCLE
5
266
100
AcDbEntity
8
0
100
AcDbCircle
10
18.870570817589023
20
23.946890925068974
30
25.427000083257081
40
0.94999999999999996
210
0
220
0
230
1
0
CIRCLE
5
267
100
AcDbEntity
8
0
100
AcDbCircle
10
24.37057081758903
20
12.84689092506898
30
25.427000083257081
40
1.5249999999999999
210
0
220
0
230
1
0
CIRCLE
5
268
100
AcDbEntity
8
0
100
AcDbCircle
10
37.370570817589019
20
17.896890925068977
30
25.427000083256086
40
0.80000000000000016
210
0
220
0
230
1
0
CIRCLE
5
269
100
AcDbEntity
8
0
100
AcDbCircle
10
24.37057081758903
20
23.946890925068974
30
25.427000083257081
40
2.5249999999999999
210
0
220
0
230
1
0
CIRCLE
5
270
100
AcDbEntity
8
0
100
AcDbCircle
10
29.870570817589002
20
23.946890925068974
30
25.427000083257081
40
0.94999999999999996
210
0
220
0
230
1
0
CIRCLE
5
271
100
AcDbEntity
8
0
100
AcDbCircle
10
36.870570817589048
20
23.046890925068983
30
25.427000083256086
40
0.94999999999999996
210
0
220
0
230
1
0
CIRCLE
5
272
100
AcDbEntity
8
0
100
AcDbCircle
10
42.370570817589019
20
6.0468909250689906
30
25.427000083256086
40
2.5249999999999999
210
0
220
0
230
1
0
CIRCLE
5
273
100
AcDbEntity
8
0
100
AcDbCircle
10
47.870570817589027
20
6.0468909250689906
30
25.427000083256086
40
0.94999999999999996
210
0
220
0
230
1
0
CIRCLE
5
274
100
AcDbEntity
8
0
100
AcDbCircle
10
42.370570817589019
20
11.946890925068988
30
25.427000083256086
40
1.5249999999999999
210
0
220
0
230
1
0
CIRCLE
5
275
100
AcDbEntity
8
0
100
AcDbCircle
10
47.370570817589019
20
9.8468909250689798
30
25.427000083256086
40
1.5249999999999999
210
0
220
0
230
1
0
CIRCLE
5
276
100
AcDbEntity
8
0
100
AcDbCircle
10
42.370570817589019
20
23.046890925068983
30
25.427000083256086
40
2.5249999999999999
210
0
220
0
230
1
0
CIRCLE
5
277
100
AcDbEntity
8
0
100
AcDbCircle
10
47.870570817589027
20
23.046890925068983
30
25.427000083256086
40
0.94999999999999996
210
0
220
0
230
1
0
CIRCLE
5
278
100
AcDbEntity
8
0
100
AcDbCircle
10
47.370570817589019
20
26.84689092506899
30
25.427000083256086
40
1.5249999999999999
210
0
220
0
230
1
0
CIRCLE
5
279
100
AcDbEntity
8
0
100
AcDbCircle
10
11.87057081758903
20
27.346890925068962
30
25.427000083255784
40
0.94999999999999996
210
0
220
0
230
1
0
CIRCLE
5
280
100
AcDbEntity
8
0
100
AcDbCircle
10
11.370570817589023
20
31.14689092506897
30
25.427000083255784
40
1.5249999999999999
210
0
220
0
230
1
0
CIRCLE
5
281
100
AcDbEntity
8
0
100
AcDbCircle
10
19.37057081758903
20
35.796890925068979
30
25.427000083257081
40
0.80000000000000016
210
0
220
0
230
1
0
CIRCLE
5
282
100
AcDbEntity
8
0
100
AcDbCircle
10
29.37057081758903
20
27.746890925068982
30
25.427000083257081
40
1.5249999999999999
210
0
220
0
230
1
0
CIRCLE
5
283
100
AcDbEntity
8
0
100
AcDbCircle
10
24.37057081758903
20
29.846890925068973
30
25.427000083257081
40
1.5249999999999999
210
0
220
0
230
1
0
CIRCLE
5
284
100
AcDbEntity
8
0
100
AcDbCircle
10
37.370570817589019
20
34.896890925068988
30
25.427000083256086
40
0.80000000000000016
210
0
220
0
230
1
0
CIRCLE
5
285
100
AcDbEntity
8
0
100
AcDbCircle
10
36.870570817589048
20
40.046890925068993
30
25.427000083256086
40
0.94999999999999996
210
0
220
0
230
1
0
CIRCLE
5
286
100
AcDbEntity
8
0
100
AcDbCircle
10
11.87057081758903
20
44.346890925068969
30
25.427000083255784
40
0.94999999999999996
210
0
220
0
230
1
0
CIRCLE
5
287
100
AcDbEntity
8
0
100
AcDbCircle
10
18.870570817589023
20
40.946890925068963
30
25.427000083257081
40
0.94999999999999996
210
0
220
0
230
1
0
CIRCLE
5
288
100
AcDbEntity
8
0
100
AcDbCircle
10
11.370570817589023
20
48.146890925068924
30
25.427000083255784
40
1.5249999999999999
210
0
220
0
230
1
0
CIRCLE
5
289
100
AcDbEntity
8
0
100
AcDbCircle
10
24.37057081758903
20
40.946890925068963
30
25.427000083257081
40
2.5249999999999999
210
0
220
0
230
1
0
CIRCLE
5
290
100
AcDbEntity
8
0
100
AcDbCircle
10
29.870570817589002
20
40.946890925068963
30
25.427000083257081
40
0.94999999999999996
210
0
220
0
230
1
0
CIRCLE
5
291
100
AcDbEntity
8
0
100
AcDbCircle
10
29.37057081758903
20
44.746890925068968
30
25.427000083257081
40
1.5249999999999999
210
0
220
0
230
1
0
CIRCLE
5
292
100
AcDbEntity
8
0
100
AcDbCircle
10
24.37057081758903
20
46.846890925068976
30
25.427000083257081
40
1.5249999999999999
210
0
220
0
230
1
0
CIRCLE
5
293
100
AcDbEntity
8
0
100
AcDbCircle
10
42.370570817589019
20
28.946890925068981
30
25.427000083256086
40
1.5249999999999999
210
0
220
0
230
1
0
CIRCLE
5
294
100
AcDbEntity
8
0
100
AcDbCircle
10
42.370570817589019
20
40.046890925068993
30
25.427000083256086
40
2.5249999999999999
210
0
220
0
230
1
0
CIRCLE
5
295
100
AcDbEntity
8
0
100
AcDbCircle
10
47.870570817589027
20
40.046890925068993
30
25.427000083256086
40
0.94999999999999996
210
0
220
0
230
1
0
CIRCLE
5
296
100
AcDbEntity
8
0
100
AcDbCircle
10
42.370570817589019
20
45.946890925068956
30
25.427000083256086
40
1.5249999999999999
210
0
220
0
230
1
0
CIRCLE
5
297
100
AcDbEntity
8
0
100
AcDbCircle
10
47.370570817589019
20
43.846890925068998
30
25.427000083256086
40
1.5249999999999999
210
0
220
0
230
1
0
LINE
5
298
100
AcDbEntity
8
0
100
AcDbLine
10
-40.686928412667243
20
26.587120347829106
30
25.427000083255891
11
-40.686928412667207
21
12.587120347829103
31
25.427000083255891
0
LINE
5
299
100
AcDbEntity
8
0
100
AcDbLine
10
-40.686928412667207
20
12.587120347829103
30
25.427000083255891
11
-54.686928412667228
21
12.587120347829103
31
25.427000083255891
0
LINE
5
300
100
AcDbEntity
8
0
100
AcDbLine
10
-54.686928412667228
20
26.587120347829106
30
25.427000083255891
11
-40.686928412667243
21
26.587120347829106
31
25.427000083255891
0
LINE
5
301
100
AcDbEntity
8
0
100
AcDbLine
10
-54.686928412667228
20
12.587120347829103
30
25.427000083255891
11
-54.686928412667228
21
26.587120347829106
31
25.427000083255891
0
LINE
5
302
100
AcDbEntity
8
0
100
AcDbLine
10
-40.686928412667207
20
9.5871203478290958
30
25.427000083255891
11
-40.686928412667207
21
-4.4128796521709068
31
25.427000083255891
0
LINE
5
303
100
AcDbEntity
8
0
100
AcDbLine
10
-54.686928412667228
20
-4.4128796521709068
30
25.427000083255891
11
-54.686928412667228
21
9.5871203478290958
31
25.427000083255891
0
LINE
5
304
100
AcDbEntity
8
0
100
AcDbLine
10
-54.686928412667228
20
9.5871203478290958
30
25.427000083255891
11
-40.686928412667207
21
9.5871203478290958
31
25.427000083255891
0
LINE
5
305
100
AcDbEntity
8
0
100
AcDbLine
10
-40.686928412667207
20
-4.4128796521709068
30
25.427000083255891
11
-54.686928412667228
21
-4.4128796521709068
31
25.427000083255891
0
LINE
5
306
100
AcDbEntity
8
0
100
AcDbLine
10
-40.686928412667207
20
-21.412879652170901
30
25.427000083255891
11
-54.686928412667228
21
-21.412879652170918
31
25.427000083255891
0
LINE
5
307
100
AcDbEntity
8
0
100
AcDbLine
10
-54.686928412667228
20
-21.412879652170918
30
25.427000083255891
11
-54.686928412667228
21
-7.4128796521708962
31
25.427000083255891
0
LINE
5
308
100
AcDbEntity
8
0
100
AcDbLine
10
-54.686928412667228
20
-7.4128796521708962
30
25.427000083255891
11
-40.686928412667207
21
-7.4128796521708962
31
25.427000083255891
0
LINE
5
309
100
AcDbEntity
8
0
100
AcDbLine
10
-40.686928412667207
20
-7.4128796521708962
30
25.427000083255891
11
-40.686928412667207
21
-21.412879652170901
31
25.427000083255891
0
LINE
5
310
100
AcDbEntity
8
0
100
AcDbLine
10
-54.686928412667228
20
-38.412879652170894
30
25.427000083255891
11
-54.686928412667228
21
-24.412879652170908
31
25.427000083255891
0
LINE
5
311
100
AcDbEntity
8
0
100
AcDbLine
10
-40.686928412667207
20
-38.412879652170894
30
25.427000083255891
11
-54.686928412667228
21
-38.412879652170894
31
25.427000083255891
0
LINE
5
312
100
AcDbEntity
8
0
100
AcDbLine
10
-40.686928412667207
20
-24.412879652170908
30
25.427000083255891
11
-40.686928412667207
21
-38.412879652170894
31
25.427000083255891
0
LINE
5
313
100
AcDbEntity
8
0
100
AcDbLine
10
-54.686928412667228
20
-24.412879652170908
30
25.427000083255891
11
-40.686928412667207
21
-24.412879652170908
31
25.427000083255891
0
LINE
5
314
100
AcDbEntity
8
0
100
AcDbLine
10
-40.686928412667243
20
29.587120347829114
30
25.427000083255891
11
-54.686928412667228
21
29.587120347829114
31
25.427000083255891
0
LINE
5
315
100
AcDbEntity
8
0
100
AcDbLine
10
-40.686928412667243
20
43.587120347829114
30
25.427000083255891
11
-40.686928412667243
21
29.587120347829114
31
25.427000083255891
0
LINE
5
316
100
AcDbEntity
8
0
100
AcDbLine
10
-54.686928412667228
20
43.587120347829114
30
25.427000083255891
11
-40.686928412667243
21
43.587120347829114
31
25.427000083255891
0
LINE
5
317
100
AcDbEntity
8
0
100
AcDbLine
10
-54.686928412667228
20
29.587120347829114
30
25.427000083255891
11
-54.686928412667228
21
43.587120347829114
31
25.427000083255891
0
LINE
5
318
100
AcDbEntity
8
0
100
AcDbLine
10
35.313071587332736
20
-35.012879652170874
30
25.427000083256086
11
35.313071587332736
21
-21.012879652170874
31
25.427000083256086
0
LINE
5
319
100
AcDbEntity
8
0
100
AcDbLine
10
49.313071587332722
20
-35.012879652170874
30
25.427000083256086
11
35.313071587332736
21
-35.012879652170874
31
25.427000083256086
0
LINE
5
320
100
AcDbEntity
8
0
100
AcDbLine
10
35.313071587332736
20
-21.012879652170874
30
25.427000083256086
11
49.313071587332722
21
-21.012879652170874
31
25.427000083256086
0
LINE
5
321
100
AcDbEntity
8
0
100
AcDbLine
10
49.313071587332722
20
-21.012879652170874
30
25.427000083256086
11
49.313071587332722
21
-35.012879652170874
31
25.427000083256086
0
LINE
5
322
100
AcDbEntity
8
0
100
AcDbLine
10
49.313071587332722
20
-4.0128796521708798
30
25.427000083256086
11
49.313071587332722
21
-18.012879652170884
31
25.427000083256086
0
LINE
5
323
100
AcDbEntity
8
0
100
AcDbLine
10
35.313071587332736
20
-4.0128796521708798
30
25.427000083256086
11
49.313071587332722
21
-4.0128796521708798
31
25.427000083256086
0
LINE
5
324
100
AcDbEntity
8
0
100
AcDbLine
10
49.313071587332722
20
-18.012879652170884
30
25.427000083256086
11
35.313071587332736
21
-18.012879652170884
31
25.427000083256086
0
LINE
5
325
100
AcDbEntity
8
0
100
AcDbLine
10
35.313071587332736
20
-18.012879652170884
30
25.427000083256086
11
35.313071587332736
21
-4.0128796521708798
31
25.427000083256086
0
LINE
5
326
100
AcDbEntity
8
0
100
AcDbLine
10
35.313071587332736
20
12.98712034782913
30
25.427000083256086
11
49.313071587332722
21
12.98712034782913
31
25.427000083256086
0
LINE
5
327
100
AcDbEntity
8
0
100
AcDbLine
10
49.313071587332722
20
-1.0128796521708727
30
25.427000083256086
11
35.313071587332736
21
-1.0128796521708727
31
25.427000083256086
0
LINE
5
328
100
AcDbEntity
8
0
100
AcDbLine
10
35.313071587332736
20
-1.0128796521708727
30
25.427000083256086
11
35.313071587332736
21
12.98712034782913
31
25.427000083256086
0
LINE
5
329
100
AcDbEntity
8
0
100
AcDbLine
10
49.313071587332722
20
12.98712034782913
30
25.427000083256086
11
49.313071587332722
21
-1.0128796521708727
31
25.427000083256086
0
LINE
5
330
100
AcDbEntity
8
0
100
AcDbLine
10
49.313071587332722
20
29.987120347829123
30
25.427000083256086
11
49.313071587332722
21
15.987120347829119
31
25.427000083256086
0
LINE
5
331
100
AcDbEntity
8
0
100
AcDbLine
10
49.313071587332722
20
15.987120347829119
30
25.427000083256086
11
35.313071587332736
21
15.987120347829119
31
25.427000083256086
0
LINE
5
332
100
AcDbEntity
8
0
100
AcDbLine
10
35.313071587332736
20
15.987120347829119
30
25.427000083256086
11
35.313071587332736
21
29.987120347829123
31
25.427000083256086
0
LINE
5
333
100
AcDbEntity
8
0
100
AcDbLine
10
35.313071587332736
20
29.987120347829123
30
25.427000083256086
11
49.313071587332722
21
29.987120347829123
31
25.427000083256086
0
LINE
5
334
100
AcDbEntity
8
0
100
AcDbLine
10
35.313071587332736
20
32.987120347829133
30
25.427000083256086
11
35.313071587332736
21
46.987120347829133
31
25.427000083256086
0
LINE
5
335
100
AcDbEntity
8
0
100
AcDbLine
10
49.313071587332722
20
32.987120347829133
30
25.427000083256086
11
35.313071587332736
21
32.987120347829133
31
25.427000083256086
0
LINE
5
336
100
AcDbEntity
8
0
100
AcDbLine
10
35.313071587332736
20
46.987120347829133
30
25.427000083256086
11
49.313071587332722
21
46.987120347829133
31
25.427000083256086
0
LINE
5
337
100
AcDbEntity
8
0
100
AcDbLine
10
49.313071587332722
20
46.987120347829133
30
25.427000083256086
11
49.313071587332722
21
32.987120347829133
31
25.427000083256086
0
LINE
5
338
100
AcDbEntity
8
0
100
AcDbLine
10
-22.686928412667235
20
-38.412879652170908
30
25.427000083256388
11
-36.686928412667186
21
-38.412879652170908
31
25.427000083256388
0
LINE
5
339
100
AcDbEntity
8
0
100
AcDbLine
10
-22.686928412667235
20
-24.412879652170925
30
25.427000083256388
11
-22.686928412667235
21
-38.412879652170908
31
25.427000083256388
0
LINE
5
340
100
AcDbEntity
8
0
100
AcDbLine
10
-36.686928412667221
20
-24.412879652170925
30
25.427000083256388
11
-22.686928412667235
21
-24.412879652170925
31
25.427000083256388
0
LINE
5
341
100
AcDbEntity
8
0
100
AcDbLine
10
-36.686928412667186
20
-38.412879652170908
30
25.427000083256388
11
-36.686928412667221
21
-24.412879652170925
31
25.427000083256388
0
LINE
5
342
100
AcDbEntity
8
0
100
AcDbLine
10
-22.686928412667235
20
-21.412879652170918
30
25.427000083256388
11
-36.686928412667221
21
-21.412879652170918
31
25.427000083256388
0
LINE
5
343
100
AcDbEntity
8
0
100
AcDbLine
10
-22.686928412667235
20
-7.412879652170913
30
25.427000083256388
11
-22.686928412667235
21
-21.412879652170918
31
25.427000083256388
0
LINE
5
344
100
AcDbEntity
8
0
100
AcDbLine
10
-36.686928412667221
20
-7.412879652170913
30
25.427000083256388
11
-22.686928412667235
21
-7.412879652170913
31
25.427000083256388
0
LINE
5
345
100
AcDbEntity
8
0
100
AcDbLine
10
-36.686928412667221
20
-21.412879652170918
30
25.427000083256388
11
-36.686928412667221
21
-7.412879652170913
31
25.427000083256388
0
LINE
5
346
100
AcDbEntity
8
0
100
AcDbLine
10
-22.686928412667235
20
9.5871203478290976
30
25.427000083256388
11
-22.686928412667235
21
-4.4128796521709237
31
25.427000083256388
0
LINE
5
347
100
AcDbEntity
8
0
100
AcDbLine
10
-36.686928412667221
20
-4.4128796521709237
30
25.427000083256388
11
-36.686928412667221
21
9.5871203478290798
31
25.427000083256388
0
LINE
5
348
100
AcDbEntity
8
0
100
AcDbLine
10
-36.686928412667221
20
9.5871203478290798
30
25.427000083256388
11
-22.686928412667235
21
9.5871203478290976
31
25.427000083256388
0
LINE
5
349
100
AcDbEntity
8
0
100
AcDbLine
10
-22.686928412667235
20
-4.4128796521709237
30
25.427000083256388
11
-36.686928412667221
21
-4.4128796521709237
31
25.427000083256388
0
LINE
5
350
100
AcDbEntity
8
0
100
AcDbLine
10
-36.686928412667221
20
26.587120347829089
30
25.427000083256388
11
-22.686928412667235
21
26.587120347829089
31
25.427000083256388
0
LINE
5
351
100
AcDbEntity
8
0
100
AcDbLine
10
-22.686928412667235
20
12.587120347829085
30
25.427000083256388
11
-36.686928412667221
21
12.587120347829085
31
25.427000083256388
0
LINE
5
352
100
AcDbEntity
8
0
100
AcDbLine
10
-36.686928412667221
20
12.587120347829085
30
25.427000083256388
11
-36.686928412667221
21
26.587120347829089
31
25.427000083256388
0
LINE
5
353
100
AcDbEntity
8
0
100
AcDbLine
10
-22.686928412667235
20
26.587120347829089
30
25.427000083256388
11
-22.686928412667235
21
12.587120347829085
31
25.427000083256388
0
LINE
5
354
100
AcDbEntity
8
0
100
AcDbLine
10
-22.686928412667235
20
43.587120347829057
30
25.427000083256388
11
-22.686928412667235
21
29.587120347829096
31
25.427000083256388
0
LINE
5
355
100
AcDbEntity
8
0
100
AcDbLine
10
-36.686928412667221
20
43.587120347829057
30
25.427000083256388
11
-22.686928412667235
21
43.587120347829057
31
25.427000083256388
0
LINE
5
356
100
AcDbEntity
8
0
100
AcDbLine
10
-36.686928412667221
20
29.587120347829096
30
25.427000083256388
11
-36.686928412667221
21
43.587120347829057
31
25.427000083256388
0
LINE
5
357
100
AcDbEntity
8
0
100
AcDbLine
10
-22.686928412667235
20
29.587120347829096
30
25.427000083256388
11
-36.686928412667221
21
29.587120347829096
31
25.427000083256388
0
LINE
5
358
100
AcDbEntity
8
0
100
AcDbLine
10
-18.686928412667196
20
-51.112879652170932
30
25.427000083256335
11
-18.686928412667196
21
-37.112879652170918
31
25.427000083256335
0
LINE
5
359
100
AcDbEntity
8
0
100
AcDbLine
10
-18.686928412667196
20
-37.112879652170918
30
25.427000083256335
11
-4.6869284126671751
21
-37.112879652170918
31
25.427000083256335
0
LINE
5
360
100
AcDbEntity
8
0
100
AcDbLine
10
-4.6869284126671751
20
-51.112879652170932
30
25.427000083256335
11
-18.686928412667196
21
-51.112879652170932
31
25.427000083256335
0
LINE
5
361
100
AcDbEntity
8
0
100
AcDbLine
10
-4.6869284126671751
20
-37.112879652170918
30
25.427000083256335
11
-4.6869284126671751
21
-51.112879652170932
31
25.427000083256335
0
LINE
5
362
100
AcDbEntity
8
0
100
AcDbLine
10
-18.686928412667196
20
-20.112879652170928
30
25.427000083256335
11
-4.6869284126671751
21
-20.112879652170928
31
25.427000083256335
0
LINE
5
363
100
AcDbEntity
8
0
100
AcDbLine
10
-4.6869284126671751
20
-34.112879652170911
30
25.427000083256335
11
-18.686928412667196
21
-34.112879652170911
31
25.427000083256335
0
LINE
5
364
100
AcDbEntity
8
0
100
AcDbLine
10
-4.6869284126671751
20
-20.112879652170928
30
25.427000083256335
11
-4.6869284126671751
21
-34.112879652170911
31
25.427000083256335
0
LINE
5
365
100
AcDbEntity
8
0
100
AcDbLine
10
-18.686928412667196
20
-34.112879652170911
30
25.427000083256335
11
-18.686928412667196
21
-20.112879652170928
31
25.427000083256335
0
LINE
5
366
100
AcDbEntity
8
0
100
AcDbLine
10
-4.6869284126671751
20
-3.1128796521709159
30
25.427000083256335
11
-4.6869284126671751
21
-17.112879652170921
31
25.427000083256335
0
LINE
5
367
100
AcDbEntity
8
0
100
AcDbLine
10
-18.686928412667196
20
-3.1128796521709159
30
25.427000083256335
11
-4.6869284126671751
21
-3.1128796521709159
31
25.427000083256335
0
LINE
5
368
100
AcDbEntity
8
0
100
AcDbLine
10
-4.6869284126671751
20
-17.112879652170921
30
25.427000083256335
11
-18.686928412667196
21
-17.112879652170921
31
25.427000083256335
0
LINE
5
369
100
AcDbEntity
8
0
100
AcDbLine
10
-18.686928412667196
20
-17.112879652170921
30
25.427000083256335
11
-18.686928412667196
21
-3.1128796521709159
31
25.427000083256335
0
LINE
5
370
100
AcDbEntity
8
0
100
AcDbLine
10
-18.686928412667196
20
13.887120347829093
30
25.427000083256335
11
-4.6869284126671751
21
13.887120347829093
31
25.427000083256335
0
LINE
5
371
100
AcDbEntity
8
0
100
AcDbLine
10
-18.686928412667196
20
-0.11287965217092633
30
25.427000083256335
11
-18.686928412667196
21
13.887120347829093
31
25.427000083256335
0
LINE
5
372
100
AcDbEntity
8
0
100
AcDbLine
10
-4.6869284126671751
20
-0.11287965217092633
30
25.427000083256335
11
-18.686928412667196
21
-0.11287965217092633
31
25.427000083256335
0
LINE
5
373
100
AcDbEntity
8
0
100
AcDbLine
10
-4.6869284126671751
20
13.887120347829093
30
25.427000083256335
11
-4.6869284126671751
21
-0.11287965217092633
31
25.427000083256335
0
LINE
5
374
100
AcDbEntity
8
0
100
AcDbLine
10
-4.6869284126671751
20
30.887120347829086
30
25.427000083256335
11
-4.6869284126671751
21
16.887120347829082
31
25.427000083256335
0
LINE
5
375
100
AcDbEntity
8
0
100
AcDbLine
10
-4.6869284126671751
20
16.887120347829082
30
25.427000083256335
11
-18.686928412667196
21
16.887120347829082
31
25.427000083256335
0
LINE
5
376
100
AcDbEntity
8
0
100
AcDbLine
10
-18.686928412667196
20
30.887120347829086
30
25.427000083256335
11
-4.6869284126671751
21
30.887120347829086
31
25.427000083256335
0
LINE
5
377
100
AcDbEntity
8
0
100
AcDbLine
10
-18.686928412667196
20
16.887120347829082
30
25.427000083256335
11
-18.686928412667196
21
30.887120347829086
31
25.427000083256335
0
LINE
5
378
100
AcDbEntity
8
0
100
AcDbLine
10
-4.6869284126671751
20
33.887120347829097
30
25.427000083256335
11
-18.686928412667196
21
33.887120347829097
31
25.427000083256335
0
LINE
5
379
100
AcDbEntity
8
0
100
AcDbLine
10
-18.686928412667196
20
33.887120347829097
30
25.427000083256335
11
-18.686928412667196
21
47.887120347829054
31
25.427000083256335
0
LINE
5
380
100
AcDbEntity
8
0
100
AcDbLine
10
-18.686928412667196
20
47.887120347829054
30
25.427000083256335
11
-4.6869284126671751
21
47.887120347829054
31
25.427000083256335
0
LINE
5
381
100
AcDbEntity
8
0
100
AcDbLine
10
-4.6869284126671751
20
47.887120347829054
30
25.427000083256335
11
-4.6869284126671751
21
33.887120347829097
31
25.427000083256335
0
LINE
5
382
100
AcDbEntity
8
0
100
AcDbLine
10
-0.68692841266729587
20
37.287120347829109
30
25.427000083255784
11
-0.68692841266729587
21
51.287120347829109
31
25.427000083255784
0
LINE
5
383
100
AcDbEntity
8
0
100
AcDbLine
10
13.313071587332725
20
51.287120347829109
30
25.427000083255784
11
13.313071587332725
21
37.287120347829109
31
25.427000083255784
0
LINE
5
384
100
AcDbEntity
8
0
100
AcDbLine
10
13.313071587332725
20
37.287120347829109
30
25.427000083255784
11
-0.68692841266729587
21
37.287120347829109
31
25.427000083255784
0
LINE
5
385
100
AcDbEntity
8
0
100
AcDbLine
10
-0.68692841266729587
20
51.287120347829109
30
25.427000083255784
11
13.313071587332725
21
51.287120347829109
31
25.427000083255784
0
LINE
5
386
100
AcDbEntity
8
0
100
AcDbLine
10
13.313071587332725
20
20.287120347829099
30
25.427000083255784
11
-0.68692841266729587
21
20.287120347829099
31
25.427000083255784
0
LINE
5
387
100
AcDbEntity
8
0
100
AcDbLine
10
13.313071587332725
20
34.287120347829102
30
25.427000083255784
11
13.313071587332725
21
20.287120347829099
31
25.427000083255784
0
LINE
5
388
100
AcDbEntity
8
0
100
AcDbLine
10
-0.68692841266729587
20
34.287120347829102
30
25.427000083255784
11
13.313071587332725
21
34.287120347829102
31
25.427000083255784
0
LINE
5
389
100
AcDbEntity
8
0
100
AcDbLine
10
-0.68692841266729587
20
20.287120347829099
30
25.427000083255784
11
-0.68692841266729587
21
34.287120347829102
31
25.427000083255784
0
LINE
5
390
100
AcDbEntity
8
0
100
AcDbLine
10
13.313071587332725
20
17.287120347829109
30
25.427000083255784
11
13.313071587332725
21
3.2871203478291067
31
25.427000083255784
0
LINE
5
391
100
AcDbEntity
8
0
100
AcDbLine
10
-0.68692841266729587
20
17.287120347829109
30
25.427000083255784
11
13.313071587332725
21
17.287120347829109
31
25.427000083255784
0
LINE
5
392
100
AcDbEntity
8
0
100
AcDbLine
10
-0.68692841266729587
20
3.2871203478290889
30
25.427000083255784
11
-0.68692841266729587
21
17.287120347829109
31
25.427000083255784
0
LINE
5
393
100
AcDbEntity
8
0
100
AcDbLine
10
13.313071587332725
20
3.2871203478291067
30
25.427000083255784
11
-0.68692841266729587
21
3.2871203478290889
31
25.427000083255784
0
LINE
5
394
100
AcDbEntity
8
0
100
AcDbLine
10
13.313071587332725
20
-13.712879652170905
30
25.427000083255784
11
-0.68692841266729587
21
-13.712879652170905
31
25.427000083255784
0
LINE
5
395
100
AcDbEntity
8
0
100
AcDbLine
10
-0.68692841266729587
20
-13.712879652170905
30
25.427000083255784
11
-0.68692841266729587
21
0.28712034782909956
31
25.427000083255784
0
LINE
5
396
100
AcDbEntity
8
0
100
AcDbLine
10
-0.68692841266729587
20
0.28712034782909956
30
25.427000083255784
11
13.313071587332725
21
0.28712034782909956
31
25.427000083255784
0
LINE
5
397
100
AcDbEntity
8
0
100
AcDbLine
10
13.313071587332725
20
0.28712034782909956
30
25.427000083255784
11
13.313071587332725
21
-13.712879652170905
31
25.427000083255784
0
LINE
5
398
100
AcDbEntity
8
0
100
AcDbLine
10
-0.68692841266729587
20
-16.712879652170912
30
25.427000083255784
11
13.313071587332725
21
-16.712879652170894
31
25.427000083255784
0
LINE
5
399
100
AcDbEntity
8
0
100
AcDbLine
10
-0.68692841266729587
20
-30.712879652170898
30
25.427000083255784
11
-0.68692841266729587
21
-16.712879652170912
31
25.427000083255784
0
LINE
5
400
100
AcDbEntity
8
0
100
AcDbLine
10
13.313071587332725
20
-30.712879652170898
30
25.427000083255784
11
-0.68692841266729587
21
-30.712879652170898
31
25.427000083255784
0
LINE
5
401
100
AcDbEntity
8
0
100
AcDbLine
10
13.313071587332725
20
-16.712879652170894
30
25.427000083255784
11
13.313071587332725
21
-30.712879652170898
31
25.427000083255784
0
LINE
5
402
100
AcDbEntity
8
0
100
AcDbLine
10
13.313071587332725
20
-47.712879652170912
30
25.427000083255784
11
-0.68692841266729587
21
-47.712879652170912
31
25.427000083255784
0
LINE
5
403
100
AcDbEntity
8
0
100
AcDbLine
10
-0.68692841266729587
20
-33.712879652170905
30
25.427000083255784
11
13.313071587332725
21
-33.712879652170905
31
25.427000083255784
0
LINE
5
404
100
AcDbEntity
8
0
100
AcDbLine
10
-0.68692841266729587
20
-47.712879652170912
30
25.427000083255784
11
-0.68692841266729587
21
-33.712879652170905
31
25.427000083255784
0
LINE
5
405
100
AcDbEntity
8
0
100
AcDbLine
10
13.313071587332725
20
-33.712879652170905
30
25.427000083255784
11
13.313071587332725
21
-47.712879652170912
31
25.427000083255784
0
LINE
5
406
100
AcDbEntity
8
0
100
AcDbLine
10
31.313071587332733
20
-51.112879652170903
30
25.427000083257081
11
17.313071587332711
21
-51.112879652170903
31
25.427000083257081
0
LINE
5
407
100
AcDbEntity
8
0
100
AcDbLine
10
17.313071587332711
20
-51.112879652170903
30
25.427000083257081
11
17.313071587332711
21
-37.112879652170896
31
25.427000083257081
0
LINE
5
408
100
AcDbEntity
8
0
100
AcDbLine
10
31.313071587332733
20
-37.112879652170896
30
25.427000083257081
11
31.313071587332733
21
-51.112879652170903
31
25.427000083257081
0
LINE
5
409
100
AcDbEntity
8
0
100
AcDbLine
10
17.313071587332711
20
-37.112879652170896
30
25.427000083257081
11
31.313071587332733
21
-37.112879652170896
31
25.427000083257081
0
LINE
5
410
100
AcDbEntity
8
0
100
AcDbLine
10
31.313071587332733
20
-34.112879652170889
30
25.427000083257081
11
17.313071587332711
21
-34.112879652170889
31
25.427000083257081
0
LINE
5
411
100
AcDbEntity
8
0
100
AcDbLine
10
17.313071587332711
20
-34.112879652170889
30
25.427000083257081
11
17.313071587332711
21
-20.112879652170882
31
25.427000083257081
0
LINE
5
412
100
AcDbEntity
8
0
100
AcDbLine
10
31.313071587332733
20
-20.112879652170882
30
25.427000083257081
11
31.313071587332733
21
-34.112879652170889
31
25.427000083257081
0
LINE
5
413
100
AcDbEntity
8
0
100
AcDbLine
10
17.313071587332711
20
-20.112879652170882
30
25.427000083257081
11
31.313071587332733
21
-20.112879652170882
31
25.427000083257081
0
LINE
5
414
100
AcDbEntity
8
0
100
AcDbLine
10
31.313071587332733
20
-17.112879652170893
30
25.427000083257081
11
17.313071587332711
21
-17.112879652170893
31
25.427000083257081
0
LINE
5
415
100
AcDbEntity
8
0
100
AcDbLine
10
31.313071587332733
20
-3.1128796521708901
30
25.427000083257081
11
31.313071587332733
21
-17.112879652170893
31
25.427000083257081
0
LINE
5
416
100
AcDbEntity
8
0
100
AcDbLine
10
17.313071587332711
20
-17.112879652170893
30
25.427000083257081
11
17.313071587332711
21
-3.1128796521708901
31
25.427000083257081
0
LINE
5
417
100
AcDbEntity
8
0
100
AcDbLine
10
17.313071587332711
20
-3.1128796521708901
30
25.427000083257081
11
31.313071587332733
21
-3.1128796521708901
31
25.427000083257081
0
LINE
5
418
100
AcDbEntity
8
0
100
AcDbLine
10
31.313071587332733
20
-0.11287965217088303
30
25.427000083257081
11
17.313071587332711
21
-0.11287965217088303
31
25.427000083257081
0
LINE
5
419
100
AcDbEntity
8
0
100
AcDbLine
10
17.313071587332711
20
13.887120347829121
30
25.427000083257081
11
31.313071587332733
21
13.887120347829121
31
25.427000083257081
0
LINE
5
420
100
AcDbEntity
8
0
100
AcDbLine
10
17.313071587332711
20
-0.11287965217088303
30
25.427000083257081
11
17.313071587332711
21
13.887120347829121
31
25.427000083257081
0
LINE
5
421
100
AcDbEntity
8
0
100
AcDbLine
10
31.313071587332733
20
13.887120347829121
30
25.427000083257081
11
31.313071587332733
21
-0.11287965217088303
31
25.427000083257081
0
LINE
5
422
100
AcDbEntity
8
0
100
AcDbLine
10
17.313071587332711
20
30.887120347829114
30
25.427000083257081
11
31.313071587332733
21
30.887120347829114
31
25.427000083257081
0
LINE
5
423
100
AcDbEntity
8
0
100
AcDbLine
10
31.313071587332733
20
30.887120347829114
30
25.427000083257081
11
31.313071587332733
21
16.887120347829111
31
25.427000083257081
0
LINE
5
424
100
AcDbEntity
8
0
100
AcDbLine
10
17.313071587332711
20
16.887120347829111
30
25.427000083257081
11
17.313071587332711
21
30.887120347829114
31
25.427000083257081
0
LINE
5
425
100
AcDbEntity
8
0
100
AcDbLine
10
31.313071587332733
20
16.887120347829111
30
25.427000083257081
11
17.313071587332711
21
16.887120347829111
31
25.427000083257081
0
LINE
5
426
100
AcDbEntity
8
0
100
AcDbLine
10
17.313071587332711
20
33.887120347829118
30
25.427000083257081
11
17.313071587332711
21
47.887120347829082
31
25.427000083257081
0
LINE
5
427
100
AcDbEntity
8
0
100
AcDbLine
10
31.313071587332733
20
33.887120347829118
30
25.427000083257081
11
17.313071587332711
21
33.887120347829118
31
25.427000083257081
0
LINE
5
428
100
AcDbEntity
8
0
100
AcDbLine
10
31.313071587332733
20
47.887120347829082
30
25.427000083257081
11
31.313071587332733
21
33.887120347829118
31
25.427000083257081
0
LINE
5
429
100
AcDbEntity
8
0
100
AcDbLine
10
17.313071587332711
20
47.887120347829082
30
25.427000083257081
11
31.313071587332733
21
47.887120347829082
31
25.427000083257081
0
LINE
5
430
100
AcDbEntity
8
0
100
AcDbLine
10
35.313071587332736
20
-52.012879652170874
30
25.427000083256086
11
35.313071587332736
21
-38.012879652170867
31
25.427000083256086
0
LINE
5
431
100
AcDbEntity
8
0
100
AcDbLine
10
35.313071587332736
20
-38.012879652170867
30
25.427000083256086
11
49.313071587332722
21
-38.012879652170867
31
25.427000083256086
0
LINE
5
432
100
AcDbEntity
8
0
100
AcDbLine
10
49.313071587332722
20
-38.012879652170867
30
25.427000083256086
11
49.313071587332722
21
-52.012879652170874
31
25.427000083256086
0
CIRCLE
5
433
100
AcDbEntity
8
0
100
AcDbCircle
10
42.370570817589019
20
-39.053109074931015
30
25.427000083256086
40
1.5249999999999999
210
0
220
0
230
1
0
LINE
5
434
100
AcDbEntity
8
0
100
AcDbLine
10
49.313071587332722
20
-52.012879652170874
30
25.427000083256086
11
35.313071587332736
21
-52.012879652170874
31
25.427000083256086
0
CIRCLE
5
435
100
AcDbEntity
8
0
100
AcDbCircle
10
47.870570817589027
20
-44.953109074931007
30
25.427000083256086
40
0.94999999999999996
210
0
220
0
230
1
0
CIRCLE
5
436
100
AcDbEntity
8
0
100
AcDbCircle
10
47.370570817589019
20
-41.153109074931024
30
25.427000083256086
40
1.5249999999999999
210
0
220
0
230
1
0
CIRCLE
5
437
100
AcDbEntity
8
0
100
AcDbCircle
10
36.870570817589048
20
-44.953109074931007
30
25.427000083256086
40
0.94999999999999996
210
0
220
0
230
1
0
CIRCLE
5
438
100
AcDbEntity
8
0
100
AcDbCircle
10
37.370570817589019
20
-50.103109074931034
30
25.427000083256086
40
0.80000000000000016
210
0
220
0
230
1
0
CIRCLE
5
439
100
AcDbEntity
8
0
100
AcDbCircle
10
42.370570817589019
20
-44.953109074931007
30
25.427000083256086
40
2.5249999999999999
210
0
220
0
230
1
0
ENDSEC
0
SECTION
2
OBJECTS
0
DICTIONARY
5
C
100
AcDbDictionary
3
ACAD_GROUP
350
D
3
ACAD_MLINESTYLE
350
17
0
DICTIONARY
5
D
100
AcDbDictionary
0
DICTIONARY
5
1A
330
C
100
AcDbDictionary
0
DICTIONARY
5
17
100
AcDbDictionary
0
ENDSEC
0
EOF
