M48
; DRILL file KiCad 10.0.3 date 2026-06-16T21:11:53
; FORMAT={-:-/ absolute / metric / decimal}
; #@! TF.CreationDate,2026-06-16T21:11:53+03:00
; #@! TF.GenerationSoftware,Kicad,Pcbnew,10.0.3
; #@! TF.FileFunction,Plated,1,2,PTH
FMAT,2
METRIC
; #@! TA.AperFunction,Plated,PTH,ViaDrill
T1C0.300
; #@! TA.AperFunction,Plated,PTH,ComponentDrill
T2C1.092
%
G90
G05
T1
X35.72Y-73.211
X44.864Y-145.347
X47.505Y-106.231
X49.944Y-72.195
X50.452Y-89.467
X58.072Y-135.187
X58.326Y-85.911
X58.326Y-91.296
X58.326Y-107.044
X58.326Y-116.696
X58.326Y-128.583
X58.377Y-66.353
X58.377Y-72.754
X58.377Y-99.475
X61.628Y-127.059
X64.676Y-146.85
X68.74Y-145.947
X69.698Y-145.439
X70.264Y-144.839
X76.309Y-61.426
X76.309Y-72.906
X76.309Y-96.02
X76.309Y-106.942
X76.309Y-113.242
X76.309Y-124.011
X76.309Y-130.107
X76.309Y-140.724
X76.36Y-81.238
X76.36Y-87.892
X94.14Y-69.655
X94.14Y-80.323
X94.141Y-83.371
X94.241Y-93.074
X94.241Y-143.417
X94.292Y-58.784
X94.292Y-100.186
X94.292Y-109.686
X94.292Y-126.45
X94.343Y-117.712
X94.648Y-135.695
X112.275Y-96.275
X112.275Y-130.209
X112.3Y-79.815
X112.326Y-104.098
X112.326Y-120.862
X112.326Y-141.182
X112.377Y-113.14
X112.402Y-62.162
X112.428Y-70.671
X112.428Y-85.403
X112.428Y-146.871
X130.208Y-79.307
X130.208Y-96.122
X130.208Y-105.723
X130.208Y-116.391
X130.208Y-148.903
X130.259Y-89.569
X130.309Y-62.188
X130.309Y-69.401
X130.309Y-130.26
X130.309Y-138.184
X130.716Y-121.471
X134.78Y-158.555
X142.908Y-137.727
X144.117Y-77.275
X145.448Y-155.101
X175.256Y-64.463
X175.256Y-67.964
X175.256Y-81.463
X175.36Y-114.715
X175.36Y-116.57
X175.36Y-132.267
X175.385Y-95.767
X175.385Y-134.07
X175.461Y-100.949
X175.588Y-144.383
X175.856Y-86.463
X193.343Y-127.39
X193.368Y-65.211
X193.368Y-96.707
X193.368Y-101.787
X193.368Y-114.004
X193.368Y-144.891
X193.394Y-63.052
X193.394Y-136.229
X193.419Y-81.187
X193.419Y-82.965
X193.444Y-118.83
X211.148Y-139.303
X211.351Y-111.134
X211.377Y-61.858
X211.377Y-65.414
X211.377Y-79.765
X211.377Y-82.407
X211.377Y-115.198
X211.377Y-133.994
X211.402Y-129.93
X211.453Y-94.903
X211.453Y-99.653
X224.356Y-160.215
X228.42Y-159.665
X229.309Y-84.413
X229.36Y-62.391
X229.36Y-79.74
X229.36Y-131.2
X229.385Y-68.513
X229.385Y-101.355
X229.385Y-114.207
X229.385Y-118.906
X229.436Y-96.529
X229.436Y-135.696
X229.436Y-144.383
X233.5Y-159.115
X239.088Y-158.607
X243.66Y-122.539
X246.925Y-154.5
X247.318Y-88.198
X247.343Y-131.556
X247.369Y-70.977
X247.369Y-82.965
X247.369Y-102.879
X247.369Y-116.417
X247.369Y-121.802
X247.394Y-65.897
X247.394Y-99.933
X259.916Y-106.283
X261.675Y-144.125
X262.964Y-139.303
X265.301Y-102.549
X265.352Y-83.092
X265.352Y-86.267
X265.352Y-99.831
X265.352Y-116.519
X265.352Y-120.735
X265.403Y-65.998
X265.403Y-71.129
X265.504Y-129.143
X281.975Y-138.475
T2
X34.458Y-149.355
X34.458Y-164.189
X36.998Y-149.355
X36.998Y-164.189
X39.538Y-149.355
X39.538Y-164.189
X42.078Y-149.355
X42.078Y-164.189
X44.618Y-149.355
X44.618Y-164.189
X47.158Y-149.355
X47.158Y-164.189
X49.698Y-149.355
X49.698Y-164.189
X52.238Y-149.355
X52.238Y-164.189
X54.778Y-149.355
X54.778Y-164.189
X57.318Y-149.355
X57.318Y-164.189
X59.858Y-149.355
X59.858Y-164.189
X62.398Y-149.355
X62.398Y-164.189
X64.938Y-149.355
X64.938Y-164.189
X250.245Y-141.841
X250.245Y-156.675
X252.785Y-141.841
X252.785Y-156.675
X255.325Y-141.841
X255.325Y-156.675
X257.865Y-141.841
X257.865Y-156.675
X260.405Y-141.841
X260.405Y-156.675
X262.945Y-141.841
X262.945Y-156.675
X265.485Y-141.841
X265.485Y-156.675
X268.025Y-141.841
X268.025Y-156.675
X270.565Y-141.841
X270.565Y-156.675
X273.105Y-141.841
X273.105Y-156.675
X275.645Y-141.841
X275.645Y-156.675
X278.185Y-141.841
X278.185Y-156.675
X280.725Y-141.841
X280.725Y-156.675
M30
