M48
; DRILL file KiCad 10.0.3 date 2026-06-16T21:11:53
; FORMAT={-:-/ absolute / metric / decimal}
; #@! TF.CreationDate,2026-06-16T21:11:53+03:00
; #@! TF.GenerationSoftware,Kicad,Pcbnew,10.0.3
; #@! TF.FileFunction,NonPlated,1,2,NPTH
FMAT,2
METRIC
; #@! TA.AperFunction,NonPlated,NPTH,ComponentDrill
T1C0.500
; #@! TA.AperFunction,NonPlated,NPTH,ComponentDrill
T2C1.600
; #@! TA.AperFunction,NonPlated,NPTH,ComponentDrill
T3C1.900
; #@! TA.AperFunction,NonPlated,NPTH,ComponentDrill
T4C2.200
; #@! TA.AperFunction,NonPlated,NPTH,ComponentDrill
T5C3.050
; #@! TA.AperFunction,NonPlated,NPTH,ComponentDrill
T6C5.050
%
G90
G05
T1
X146.95Y-107.525
X146.95Y-108.275
X146.95Y-109.025
X146.95Y-109.775
X146.95Y-110.525
X146.95Y-111.275
X146.95Y-112.025
X146.95Y-112.775
X146.95Y-113.525
X146.95Y-114.275
X146.95Y-114.275
X146.95Y-115.025
X146.95Y-143.486
X146.95Y-144.236
X146.95Y-144.986
X146.95Y-145.736
X146.95Y-146.486
X146.95Y-147.236
X146.95Y-147.986
X146.95Y-148.736
X146.95Y-149.486
X146.95Y-150.236
X146.95Y-150.236
X146.95Y-150.986
X147.0Y-58.88
X147.0Y-59.63
X147.0Y-60.38
X147.0Y-61.13
X147.0Y-61.88
X147.0Y-62.63
X147.0Y-63.38
X147.0Y-64.13
X147.0Y-64.88
X147.0Y-65.63
X147.0Y-65.63
X147.0Y-66.38
X147.0Y-80.25
X147.0Y-81.0
X147.0Y-81.75
X147.0Y-82.5
X147.0Y-83.25
X147.0Y-84.0
X147.0Y-84.75
X147.0Y-85.5
X147.0Y-86.25
X147.0Y-87.0
X147.0Y-87.0
X147.0Y-87.75
X151.95Y-107.525
X151.95Y-108.275
X151.95Y-109.025
X151.95Y-109.775
X151.95Y-110.525
X151.95Y-111.275
X151.95Y-112.025
X151.95Y-112.775
X151.95Y-113.525
X151.95Y-114.275
X151.95Y-114.275
X151.95Y-115.025
X151.95Y-143.486
X151.95Y-144.236
X151.95Y-144.986
X151.95Y-145.736
X151.95Y-146.486
X151.95Y-147.236
X151.95Y-147.986
X151.95Y-148.736
X151.95Y-149.486
X151.95Y-150.236
X151.95Y-150.236
X151.95Y-150.986
X152.0Y-58.88
X152.0Y-59.63
X152.0Y-60.38
X152.0Y-61.13
X152.0Y-61.88
X152.0Y-62.63
X152.0Y-63.38
X152.0Y-64.13
X152.0Y-64.88
X152.0Y-65.63
X152.0Y-65.63
X152.0Y-66.38
X152.0Y-80.25
X152.0Y-81.0
X152.0Y-81.75
X152.0Y-82.5
X152.0Y-83.25
X152.0Y-84.0
X152.0Y-84.75
X152.0Y-85.5
X152.0Y-86.25
X152.0Y-87.0
X152.0Y-87.0
X152.0Y-87.75
T2
X38.8Y-74.225
X38.8Y-91.225
X38.8Y-108.225
X38.8Y-125.225
X38.8Y-142.225
X56.8Y-74.225
X56.8Y-91.225
X56.8Y-108.225
X56.8Y-125.225
X56.8Y-142.225
X74.8Y-69.925
X74.8Y-86.925
X74.8Y-103.925
X74.8Y-120.925
X74.8Y-137.925
X74.8Y-154.925
X92.8Y-66.525
X92.8Y-83.525
X92.8Y-100.525
X92.8Y-117.525
X92.8Y-134.525
X92.8Y-151.525
X110.8Y-69.925
X110.8Y-86.925
X110.8Y-103.925
X110.8Y-120.925
X110.8Y-137.925
X110.8Y-154.925
X128.8Y-70.825
X128.8Y-87.825
X128.8Y-104.825
X128.8Y-121.825
X128.8Y-138.825
X128.8Y-155.825
X155.856Y-69.613
X155.856Y-86.613
X155.856Y-103.613
X155.856Y-120.613
X155.856Y-137.613
X155.856Y-154.613
X173.856Y-66.213
X173.856Y-83.213
X173.856Y-100.213
X173.856Y-117.213
X173.856Y-134.213
X173.856Y-151.213
X191.856Y-66.213
X191.856Y-83.213
X191.856Y-100.213
X191.856Y-117.213
X191.856Y-134.213
X191.856Y-151.213
X209.856Y-62.813
X209.856Y-79.813
X209.856Y-96.813
X209.856Y-113.813
X209.856Y-130.813
X209.856Y-147.813
X227.856Y-66.213
X227.856Y-83.213
X227.856Y-100.213
X227.856Y-117.213
X227.856Y-134.213
X227.856Y-151.213
X245.856Y-69.613
X245.856Y-86.613
X245.856Y-103.613
X245.856Y-120.613
X245.856Y-137.613
X263.856Y-69.613
X263.856Y-86.613
X263.856Y-103.613
X263.856Y-120.613
X263.856Y-137.613
T3
X38.3Y-69.075
X38.3Y-86.075
X38.3Y-103.075
X38.3Y-120.075
X38.3Y-137.075
X49.3Y-69.075
X49.3Y-86.075
X49.3Y-103.075
X49.3Y-120.075
X49.3Y-137.075
X56.3Y-69.075
X56.3Y-86.075
X56.3Y-103.075
X56.3Y-120.075
X56.3Y-137.075
X67.3Y-69.075
X67.3Y-86.075
X67.3Y-103.075
X67.3Y-120.075
X67.3Y-137.075
X74.3Y-64.775
X74.3Y-81.775
X74.3Y-98.775
X74.3Y-115.775
X74.3Y-132.775
X74.3Y-149.775
X85.3Y-64.775
X85.3Y-81.775
X85.3Y-98.775
X85.3Y-115.775
X85.3Y-132.775
X85.3Y-149.775
X92.3Y-61.375
X92.3Y-78.375
X92.3Y-95.375
X92.3Y-112.375
X92.3Y-129.375
X92.3Y-146.375
X103.3Y-61.375
X103.3Y-78.375
X103.3Y-95.375
X103.3Y-112.375
X103.3Y-129.375
X103.3Y-146.375
X110.3Y-64.775
X110.3Y-81.775
X110.3Y-98.775
X110.3Y-115.775
X110.3Y-132.775
X110.3Y-149.775
X121.3Y-64.775
X121.3Y-81.775
X121.3Y-98.775
X121.3Y-115.775
X121.3Y-132.775
X121.3Y-149.775
X128.3Y-65.675
X128.3Y-82.675
X128.3Y-99.675
X128.3Y-116.675
X128.3Y-133.675
X128.3Y-150.675
X139.3Y-65.675
X139.3Y-82.675
X139.3Y-99.675
X139.3Y-116.675
X139.3Y-133.675
X139.3Y-150.675
X155.356Y-64.463
X155.356Y-81.463
X155.356Y-98.463
X155.356Y-115.463
X155.356Y-132.463
X155.356Y-149.463
X166.356Y-64.463
X166.356Y-81.463
X166.356Y-98.463
X166.356Y-115.463
X166.356Y-132.463
X166.356Y-149.463
X173.356Y-61.063
X173.356Y-78.063
X173.356Y-95.063
X173.356Y-112.063
X173.356Y-129.063
X173.356Y-146.063
X184.356Y-61.063
X184.356Y-78.063
X184.356Y-95.063
X184.356Y-112.063
X184.356Y-129.063
X184.356Y-146.063
X191.356Y-61.063
X191.356Y-78.063
X191.356Y-95.063
X191.356Y-112.063
X191.356Y-129.063
X191.356Y-146.063
X202.356Y-61.063
X202.356Y-78.063
X202.356Y-95.063
X202.356Y-112.063
X202.356Y-129.063
X202.356Y-146.063
X209.356Y-57.663
X209.356Y-74.663
X209.356Y-91.663
X209.356Y-108.663
X209.356Y-125.663
X209.356Y-142.663
X220.356Y-57.663
X220.356Y-74.663
X220.356Y-91.663
X220.356Y-108.663
X220.356Y-125.663
X220.356Y-142.663
X227.356Y-61.063
X227.356Y-78.063
X227.356Y-95.063
X227.356Y-112.063
X227.356Y-129.063
X227.356Y-146.063
X238.356Y-61.063
X238.356Y-78.063
X238.356Y-95.063
X238.356Y-112.063
X238.356Y-129.063
X238.356Y-146.063
X245.356Y-64.463
X245.356Y-81.463
X245.356Y-98.463
X245.356Y-115.463
X245.356Y-132.463
X256.356Y-64.463
X256.356Y-81.463
X256.356Y-98.463
X256.356Y-115.463
X256.356Y-132.463
X263.356Y-64.463
X263.356Y-81.463
X263.356Y-98.463
X263.356Y-115.463
X263.356Y-132.463
X274.356Y-64.463
X274.356Y-81.463
X274.356Y-98.463
X274.356Y-115.463
X274.356Y-132.463
T4
X34.704Y-168.715
X52.992Y-58.987
X142.4Y-163.127
X143.924Y-56.955
X156.176Y-159.823
X168.626Y-54.263
X279.066Y-160.233
X279.176Y-56.803
T5
X43.8Y-63.175
X43.8Y-80.175
X43.8Y-97.175
X43.8Y-114.175
X43.8Y-131.175
X48.8Y-65.275
X48.8Y-82.275
X48.8Y-99.275
X48.8Y-116.275
X48.8Y-133.275
X61.8Y-63.175
X61.8Y-80.175
X61.8Y-97.175
X61.8Y-114.175
X61.8Y-131.175
X66.8Y-65.275
X66.8Y-82.275
X66.8Y-99.275
X66.8Y-116.275
X66.8Y-133.275
X79.8Y-58.875
X79.8Y-75.875
X79.8Y-92.875
X79.8Y-109.875
X79.8Y-126.875
X79.8Y-143.875
X84.8Y-60.975
X84.8Y-77.975
X84.8Y-94.975
X84.8Y-111.975
X84.8Y-128.975
X84.8Y-145.975
X97.8Y-55.475
X97.8Y-72.475
X97.8Y-89.475
X97.8Y-106.475
X97.8Y-123.475
X97.8Y-140.475
X102.8Y-57.575
X102.8Y-74.575
X102.8Y-91.575
X102.8Y-108.575
X102.8Y-125.575
X102.8Y-142.575
X115.8Y-58.875
X115.8Y-75.875
X115.8Y-92.875
X115.8Y-109.875
X115.8Y-126.875
X115.8Y-143.875
X120.8Y-60.975
X120.8Y-77.975
X120.8Y-94.975
X120.8Y-111.975
X120.8Y-128.975
X120.8Y-145.975
X133.8Y-59.775
X133.8Y-76.775
X133.8Y-93.775
X133.8Y-110.775
X133.8Y-127.775
X133.8Y-144.775
X138.8Y-61.875
X138.8Y-78.875
X138.8Y-95.875
X138.8Y-112.875
X138.8Y-129.875
X138.8Y-146.875
X160.856Y-58.563
X160.856Y-75.563
X160.856Y-92.563
X160.856Y-109.563
X160.856Y-126.563
X160.856Y-143.563
X165.856Y-60.663
X165.856Y-77.663
X165.856Y-94.663
X165.856Y-111.663
X165.856Y-128.663
X165.856Y-145.663
X178.856Y-55.163
X178.856Y-72.163
X178.856Y-89.163
X178.856Y-106.163
X178.856Y-123.163
X178.856Y-140.163
X183.856Y-57.263
X183.856Y-74.263
X183.856Y-91.263
X183.856Y-108.263
X183.856Y-125.263
X183.856Y-142.263
X196.856Y-55.163
X196.856Y-72.163
X196.856Y-89.163
X196.856Y-106.163
X196.856Y-123.163
X196.856Y-140.163
X201.856Y-57.263
X201.856Y-74.263
X201.856Y-91.263
X201.856Y-108.263
X201.856Y-125.263
X201.856Y-142.263
X214.856Y-51.763
X214.856Y-68.763
X214.856Y-85.763
X214.856Y-102.763
X214.856Y-119.763
X214.856Y-136.763
X219.856Y-53.863
X219.856Y-70.863
X219.856Y-87.863
X219.856Y-104.863
X219.856Y-121.863
X219.856Y-138.863
X232.856Y-55.163
X232.856Y-72.163
X232.856Y-89.163
X232.856Y-106.163
X232.856Y-123.163
X232.856Y-140.163
X237.856Y-57.263
X237.856Y-74.263
X237.856Y-91.263
X237.856Y-108.263
X237.856Y-125.263
X237.856Y-142.263
X250.856Y-58.563
X250.856Y-75.563
X250.856Y-92.563
X250.856Y-109.563
X250.856Y-126.563
X255.856Y-60.663
X255.856Y-77.663
X255.856Y-94.663
X255.856Y-111.663
X255.856Y-128.663
X268.856Y-58.563
X268.856Y-75.563
X268.856Y-92.563
X268.856Y-109.563
X268.856Y-126.563
X273.856Y-60.663
X273.856Y-77.663
X273.856Y-94.663
X273.856Y-111.663
X273.856Y-128.663
T6
X43.8Y-69.075
X43.8Y-86.075
X43.8Y-103.075
X43.8Y-120.075
X43.8Y-137.075
X61.8Y-69.075
X61.8Y-86.075
X61.8Y-103.075
X61.8Y-120.075
X61.8Y-137.075
X79.8Y-64.775
X79.8Y-81.775
X79.8Y-98.775
X79.8Y-115.775
X79.8Y-132.775
X79.8Y-149.775
X97.8Y-61.375
X97.8Y-78.375
X97.8Y-95.375
X97.8Y-112.375
X97.8Y-129.375
X97.8Y-146.375
X115.8Y-64.775
X115.8Y-81.775
X115.8Y-98.775
X115.8Y-115.775
X115.8Y-132.775
X115.8Y-149.775
X133.8Y-65.675
X133.8Y-82.675
X133.8Y-99.675
X133.8Y-116.675
X133.8Y-133.675
X133.8Y-150.675
X160.856Y-64.463
X160.856Y-81.463
X160.856Y-98.463
X160.856Y-115.463
X160.856Y-132.463
X160.856Y-149.463
X178.856Y-61.063
X178.856Y-78.063
X178.856Y-95.063
X178.856Y-112.063
X178.856Y-129.063
X178.856Y-146.063
X196.856Y-61.063
X196.856Y-78.063
X196.856Y-95.063
X196.856Y-112.063
X196.856Y-129.063
X196.856Y-146.063
X214.856Y-57.663
X214.856Y-74.663
X214.856Y-91.663
X214.856Y-108.663
X214.856Y-125.663
X214.856Y-142.663
X232.856Y-61.063
X232.856Y-78.063
X232.856Y-95.063
X232.856Y-112.063
X232.856Y-129.063
X232.856Y-146.063
X250.856Y-64.463
X250.856Y-81.463
X250.856Y-98.463
X250.856Y-115.463
X250.856Y-132.463
X268.856Y-64.463
X268.856Y-81.463
X268.856Y-98.463
X268.856Y-115.463
X268.856Y-132.463
M30
